<svg xmlns="http://www.w3.org/2000/svg" xmlns:xlink="http://www.w3.org/1999/xlink" width="1920" zoomAndPan="magnify" viewBox="0 0 1440 809.999993" height="1080" preserveAspectRatio="xMidYMid meet" version="1.0"><defs><filter x="0%" y="0%" width="100%" height="100%" id="b9266c61f5"><feColorMatrix values="0 0 0 0 1 0 0 0 0 1 0 0 0 0 1 0 0 0 1 0" color-interpolation-filters="sRGB"/></filter><clipPath id="194d27acdf"><path d="M 0 489.078125 L 424.605469 489.078125 L 424.605469 810 L 0 810 Z M 0 489.078125 " clip-rule="nonzero"/></clipPath><clipPath id="923b33086c"><path d="M 369.203125 810.542969 L 290.574219 787.847656 C 280.210938 784.855469 280.210938 770.320312 290.574219 767.332031 L 369.203125 744.636719 C 417.046875 730.78125 439.148438 676.160156 414.328125 633.332031 C 389.378906 590.507812 330.546875 582.167969 294.605469 616.414062 L 235.523438 672.523438 C 227.730469 679.929688 215 672.660156 217.570312 662.273438 L 237.0625 583.460938 C 248.824219 535.375 212.230469 489.078125 162.324219 489.078125 C 112.417969 489.078125 75.824219 535.375 87.722656 583.460938 L 107.207031 662.273438 C 109.777344 672.660156 97.042969 679.929688 89.25 672.523438 L 30.183594 616.414062 C -5.761719 582.167969 -64.589844 590.507812 -89.542969 633.332031 C -114.496094 676.160156 -92.398438 730.78125 -44.417969 744.636719 L 34.1875 767.324219 C 44.554688 770.316406 44.550781 784.855469 34.1875 787.84375 L -44.554688 810.542969 C -92.398438 824.398438 -114.496094 879.019531 -89.679688 921.84375 C -64.726562 964.667969 -5.898438 973.011719 30.046875 938.765625 L 89.125 882.652344 C 96.921875 875.25 109.648438 882.519531 107.082031 892.90625 L 87.585938 971.71875 C 75.703125 1019.800781 112.417969 1066.101562 162.1875 1066.101562 C 212.109375 1066.101562 248.6875 1019.800781 236.804688 971.71875 L 217.3125 892.90625 C 214.742188 882.519531 227.46875 875.25 235.265625 882.652344 L 294.347656 938.765625 C 330.289062 973.011719 389.121094 964.667969 414.074219 921.84375 C 439.148438 879.019531 417.046875 824.398438 369.203125 810.542969 Z M 162.324219 826.832031 C 134.914062 826.832031 112.675781 804.773438 112.675781 777.589844 C 112.675781 750.40625 134.914062 728.347656 162.324219 728.347656 C 189.738281 728.347656 211.972656 750.40625 211.972656 777.589844 C 211.972656 804.773438 189.738281 826.832031 162.324219 826.832031 Z M 162.324219 826.832031 " clip-rule="nonzero"/></clipPath><clipPath id="ccd298aaf4"><path d="M 0 0.078125 L 424.605469 0.078125 L 424.605469 321 L 0 321 Z M 0 0.078125 " clip-rule="nonzero"/></clipPath><clipPath id="018d460b00"><path d="M 369.203125 321.542969 L 290.574219 298.847656 C 280.210938 295.855469 280.210938 281.320312 290.574219 278.332031 L 369.203125 255.636719 C 417.046875 241.78125 439.148438 187.160156 414.328125 144.332031 C 389.378906 101.507812 330.546875 93.167969 294.605469 127.414062 L 235.523438 183.523438 C 227.730469 190.929688 215 183.660156 217.570312 173.273438 L 237.0625 94.460938 C 248.824219 46.375 212.230469 0.078125 162.324219 0.078125 C 112.417969 0.078125 75.824219 46.375 87.722656 94.460938 L 107.207031 173.273438 C 109.777344 183.660156 97.042969 190.929688 89.25 183.523438 L 30.183594 127.414062 C -5.761719 93.167969 -64.589844 101.507812 -89.542969 144.332031 C -114.496094 187.160156 -92.398438 241.78125 -44.417969 255.636719 L 34.1875 278.324219 C 44.554688 281.316406 44.550781 295.855469 34.1875 298.84375 L -44.554688 321.542969 C -92.398438 335.398438 -114.496094 390.019531 -89.679688 432.84375 C -64.726562 475.667969 -5.898438 484.011719 30.046875 449.765625 L 89.125 393.652344 C 96.921875 386.25 109.648438 393.519531 107.082031 403.90625 L 87.585938 482.71875 C 75.703125 530.800781 112.417969 577.101562 162.1875 577.101562 C 212.109375 577.101562 248.6875 530.800781 236.804688 482.71875 L 217.3125 403.90625 C 214.742188 393.519531 227.46875 386.25 235.265625 393.652344 L 294.347656 449.765625 C 330.289062 484.011719 389.121094 475.667969 414.074219 432.84375 C 439.148438 390.019531 417.046875 335.398438 369.203125 321.542969 Z M 162.324219 337.832031 C 134.914062 337.832031 112.675781 315.773438 112.675781 288.589844 C 112.675781 261.40625 134.914062 239.347656 162.324219 239.347656 C 189.738281 239.347656 211.972656 261.40625 211.972656 288.589844 C 211.972656 315.773438 189.738281 337.832031 162.324219 337.832031 Z M 162.324219 337.832031 " clip-rule="nonzero"/></clipPath><clipPath id="d7fcbe8755"><rect x="0" width="425" y="0" height="321"/></clipPath><clipPath id="f33578f8da"><path d="M 39 597 L 193 597 L 193 777.476562 L 39 777.476562 Z M 39 597 " clip-rule="nonzero"/></clipPath><clipPath id="80f7bcfd08"><path d="M 188 695 L 299 695 L 299 777.476562 L 188 777.476562 Z M 188 695 " clip-rule="nonzero"/></clipPath><mask id="956e4682bc"><g filter="url(#b9266c61f5)"><rect x="-144" width="1728" fill="#000000" y="-80.999999" height="971.999992" fill-opacity="0.41"/></g></mask><clipPath id="73465d2211"><path d="M 0.800781 0 L 404 0 L 404 386 L 0.800781 386 Z M 0.800781 0 " clip-rule="nonzero"/></clipPath><clipPath id="46655e1b45"><path d="M 470.125 130.414062 L 391.496094 107.71875 C 381.132812 104.726562 381.132812 90.191406 391.496094 87.199219 L 470.125 64.507812 C 517.96875 50.652344 540.066406 -3.96875 515.25 -46.796875 C 490.296875 -89.621094 431.46875 -97.960938 395.523438 -63.714844 L 336.445312 -7.605469 C 328.648438 -0.199219 315.921875 -7.46875 318.488281 -17.859375 L 337.984375 -96.667969 C 349.746094 -144.753906 313.152344 -191.050781 263.246094 -191.050781 C 213.339844 -191.050781 176.746094 -144.753906 188.644531 -96.667969 L 208.128906 -17.855469 C 210.695312 -7.46875 197.964844 -0.199219 190.171875 -7.605469 L 131.105469 -63.714844 C 95.160156 -97.960938 36.328125 -89.621094 11.375 -46.796875 C -13.578125 -3.96875 8.523438 50.652344 56.5 64.507812 L 135.109375 87.195312 C 145.476562 90.1875 145.472656 104.726562 135.105469 107.710938 L 56.363281 130.414062 C 8.523438 144.265625 -13.578125 198.890625 11.238281 241.714844 C 36.191406 284.539062 95.023438 292.882812 130.964844 258.636719 L 190.046875 202.523438 C 197.84375 195.121094 210.570312 202.390625 208 212.777344 L 188.507812 291.589844 C 176.625 339.671875 213.339844 385.96875 263.109375 385.96875 C 313.03125 385.96875 349.609375 339.671875 337.726562 291.589844 L 318.230469 212.777344 C 315.664062 202.390625 328.390625 195.121094 336.1875 202.523438 L 395.265625 258.636719 C 431.210938 292.882812 490.039062 284.539062 514.992188 241.714844 C 540.066406 198.890625 517.96875 144.265625 470.125 130.414062 Z M 263.246094 146.703125 C 235.835938 146.703125 213.597656 124.640625 213.597656 97.460938 C 213.597656 70.277344 235.835938 48.21875 263.246094 48.21875 C 290.65625 48.21875 312.894531 70.277344 312.894531 97.460938 C 312.894531 124.640625 290.65625 146.703125 263.246094 146.703125 Z M 263.246094 146.703125 " clip-rule="nonzero"/></clipPath><clipPath id="cab1945d35"><path d="M 0.800781 0 L 404 0 L 404 386 L 0.800781 386 Z M 0.800781 0 " clip-rule="nonzero"/></clipPath><clipPath id="8e85c9b7ce"><path d="M 470.125 130.414062 L 391.496094 107.71875 C 381.132812 104.726562 381.132812 90.191406 391.496094 87.199219 L 470.125 64.507812 C 517.96875 50.652344 540.066406 -3.96875 515.25 -46.796875 C 490.296875 -89.621094 431.46875 -97.960938 395.523438 -63.714844 L 336.445312 -7.605469 C 328.648438 -0.199219 315.921875 -7.46875 318.488281 -17.859375 L 337.984375 -96.667969 C 349.746094 -144.753906 313.152344 -191.050781 263.246094 -191.050781 C 213.339844 -191.050781 176.746094 -144.753906 188.644531 -96.667969 L 208.128906 -17.855469 C 210.695312 -7.46875 197.964844 -0.199219 190.171875 -7.605469 L 131.105469 -63.714844 C 95.160156 -97.960938 36.328125 -89.621094 11.375 -46.796875 C -13.578125 -3.96875 8.523438 50.652344 56.5 64.507812 L 135.109375 87.195312 C 145.476562 90.1875 145.472656 104.726562 135.105469 107.710938 L 56.363281 130.414062 C 8.523438 144.265625 -13.578125 198.890625 11.238281 241.714844 C 36.191406 284.539062 95.023438 292.882812 130.964844 258.636719 L 190.046875 202.523438 C 197.84375 195.121094 210.570312 202.390625 208 212.777344 L 188.507812 291.589844 C 176.625 339.671875 213.339844 385.96875 263.109375 385.96875 C 313.03125 385.96875 349.609375 339.671875 337.726562 291.589844 L 318.230469 212.777344 C 315.664062 202.390625 328.390625 195.121094 336.1875 202.523438 L 395.265625 258.636719 C 431.210938 292.882812 490.039062 284.539062 514.992188 241.714844 C 540.066406 198.890625 517.96875 144.265625 470.125 130.414062 Z M 263.246094 146.703125 C 235.835938 146.703125 213.597656 124.640625 213.597656 97.460938 C 213.597656 70.277344 235.835938 48.21875 263.246094 48.21875 C 290.65625 48.21875 312.894531 70.277344 312.894531 97.460938 C 312.894531 124.640625 290.65625 146.703125 263.246094 146.703125 Z M 263.246094 146.703125 " clip-rule="nonzero"/></clipPath><clipPath id="5236e264b7"><rect x="0" width="404" y="0" height="386"/></clipPath><clipPath id="567aef55b4"><rect x="0" width="404" y="0" height="387"/></clipPath><clipPath id="8aebc876e6"><path d="M 1.09375 0.808594 L 171.082031 0.808594 L 171.082031 212.394531 L 1.09375 212.394531 Z M 1.09375 0.808594 " clip-rule="nonzero"/></clipPath><clipPath id="46dd58cf72"><path d="M 105 94 L 170.082031 94 L 170.082031 209 L 105 209 Z M 105 94 " clip-rule="nonzero"/></clipPath><clipPath id="186a56ef65"><rect x="0" width="171" y="0" height="213"/></clipPath><clipPath id="3a893cd6fb"><path d="M 219 88 L 279 88 L 279 212.273438 L 219 212.273438 Z M 219 88 " clip-rule="nonzero"/></clipPath><clipPath id="96691893e2"><rect x="0" width="372" y="0" height="214"/></clipPath></defs><g clip-path="url(#194d27acdf)"><g clip-path="url(#923b33086c)"><g transform="matrix(1, 0, 0, 1, 0, 489)"><g clip-path="url(#d7fcbe8755)"><g clip-path="url(#ccd298aaf4)"><g clip-path="url(#018d460b00)"><path fill="#ffe0e0" d="M -99.957031 0.078125 L 424.605469 0.078125 L 424.605469 577.917969 L -99.957031 577.917969 Z M -99.957031 0.078125 " fill-opacity="1" fill-rule="nonzero"/></g></g></g></g></g></g><path fill="#fc7837" d="M 85.722656 693.542969 L 120.773438 682.082031 C 117.0625 668.0625 135.460938 661.929688 140.824219 675.527344 L 175.878906 664.070312 C 151.761719 602.917969 69.03125 630.492188 85.71875 693.542969 Z M 85.722656 693.542969 " fill-opacity="1" fill-rule="evenodd"/><g clip-path="url(#f33578f8da)"><path fill="#282c44" d="M 140.96875 632.019531 C 140.429688 632.257812 139.800781 632.019531 139.5625 631.484375 C 139.324219 630.949219 139.5625 630.320312 140.101562 630.082031 C 146.542969 627.195312 154.726562 623.183594 162.292969 618.464844 C 169.769531 613.804688 176.617188 608.472656 180.5 602.894531 C 180.710938 602.523438 183.898438 596.96875 185.839844 597.566406 C 187.484375 598.070312 186.664062 601.46875 186.066406 603.347656 C 187.070312 603.621094 188.292969 604.261719 188.617188 605.789062 C 189.980469 605.738281 192.007812 606.132812 192.433594 608.789062 C 192.714844 610.539062 190.277344 618.539062 182.53125 627.34375 C 178 632.496094 171.636719 638.011719 162.929688 642.828125 C 162.414062 643.113281 161.769531 642.929688 161.480469 642.417969 C 161.195312 641.902344 161.382812 641.257812 161.894531 640.972656 C 170.363281 636.285156 176.539062 630.9375 180.929688 625.945312 C 185.949219 620.238281 188.628906 615.101562 189.730469 611.980469 C 188.882812 612.628906 187.910156 612.953125 186.976562 612.316406 C 186.226562 611.804688 185.890625 611.117188 185.773438 610.433594 C 185.191406 611.34375 184.023438 611.46875 183.191406 611.425781 C 182.617188 612.316406 181.210938 613.359375 177.753906 612.917969 C 177.171875 612.84375 176.761719 612.3125 176.832031 611.730469 C 176.90625 611.148438 177.4375 610.738281 178.023438 610.8125 C 181.429688 611.246094 181.457031 610.210938 181.457031 610.210938 C 181.460938 610.140625 181.46875 610.070312 181.488281 610 C 181.636719 609.433594 182.222656 609.09375 182.789062 609.242188 C 182.792969 609.246094 183.738281 609.488281 183.953125 609.285156 C 183.90625 609.199219 183.875 609.101562 183.855469 609 C 183.148438 608.464844 179.910156 607.820312 179.902344 607.820312 C 179.726562 607.785156 179.566406 607.710938 179.4375 607.605469 C 175.296875 612.15625 169.554688 616.449219 163.421875 620.273438 C 155.777344 625.039062 147.492188 629.097656 140.96875 632.019531 Z M 182.292969 604.042969 C 181.867188 604.660156 181.410156 605.269531 180.921875 605.875 C 181.441406 606.007812 182.230469 606.238281 183.039062 606.554688 C 183.089844 605.394531 183.480469 604.265625 183.609375 603.925781 L 183.636719 603.839844 C 183.640625 603.832031 185.25 599.609375 185.214844 599.597656 C 184.890625 599.5 182.347656 603.957031 182.34375 603.96875 Z M 186.558594 606.847656 C 186.625 605.890625 185.925781 605.519531 185.351562 605.375 C 185.140625 606.0625 184.929688 607.023438 185.257812 607.386719 C 185.351562 607.492188 185.421875 607.613281 185.464844 607.738281 C 186.597656 607.640625 186.550781 607.066406 186.550781 607.066406 C 186.546875 606.992188 186.550781 606.917969 186.558594 606.847656 Z M 190.039062 608.429688 C 189.660156 607.960938 189.011719 607.894531 188.527344 607.925781 C 188.433594 608.210938 188.277344 608.527344 188.023438 608.820312 C 187.871094 609.25 187.621094 610.179688 188.175781 610.558594 C 188.542969 610.808594 189.542969 609.257812 190.039062 608.429688 Z M 143.773438 675.554688 C 143.191406 675.453125 142.804688 674.902344 142.90625 674.320312 C 143.007812 673.742188 143.558594 673.355469 144.140625 673.457031 C 162.496094 676.695312 166.09375 687.628906 163.859375 700.265625 C 162.019531 710.644531 156.140625 722.132812 151.460938 731.277344 C 150.742188 732.675781 150.054688 734.019531 149.378906 735.371094 L 170.28125 743.359375 L 166.28125 737.472656 C 166.027344 737.097656 166.042969 736.617188 166.292969 736.265625 C 166.414062 736.089844 209.585938 675.808594 160.179688 670.222656 C 159.59375 670.15625 159.171875 669.628906 159.234375 669.046875 C 159.300781 668.464844 159.828125 668.042969 160.410156 668.105469 C 210.496094 673.769531 172.886719 730.460938 168.453125 736.886719 L 173.894531 744.890625 C 174.121094 745.175781 174.199219 745.574219 174.058594 745.941406 C 173.851562 746.488281 173.234375 746.765625 172.683594 746.554688 L 147.523438 736.941406 L 147.433594 736.898438 C 146.90625 736.640625 146.6875 736.003906 146.949219 735.476562 C 147.6875 733.976562 148.601562 732.191406 149.566406 730.308594 C 154.175781 721.300781 159.96875 709.984375 161.757812 699.898438 C 163.785156 688.433594 160.496094 678.507812 143.773438 675.554688 Z M 115.394531 683.328125 C 115.488281 682.75 116.035156 682.355469 116.613281 682.449219 C 117.195312 682.542969 117.589844 683.089844 117.496094 683.671875 L 102.285156 776.492188 C 102.199219 777.015625 101.75 777.386719 101.234375 777.382812 L 71.765625 777.386719 C 71.175781 777.386719 70.699219 776.910156 70.699219 776.320312 C 70.699219 775.96875 70.867188 775.660156 71.132812 775.464844 L 82.410156 765.601562 L 99.476562 688.476562 C 99.605469 687.90625 100.171875 687.542969 100.746094 687.671875 C 101.320312 687.796875 101.679688 688.363281 101.554688 688.9375 L 84.417969 766.367188 C 84.378906 766.59375 84.261719 766.808594 84.074219 766.972656 L 74.601562 775.253906 L 100.332031 775.253906 Z M 95.8125 643.71875 C 96.398438 643.691406 96.894531 644.148438 96.921875 644.734375 C 96.945312 645.320312 96.492188 645.816406 95.902344 645.839844 C 88.773438 646.167969 79.554688 646.277344 70.5625 645.464844 C 63.359375 644.816406 56.296875 643.570312 50.546875 641.375 C 50.476562 641.523438 50.371094 641.664062 50.230469 641.773438 C 50.222656 641.78125 47.632812 643.824219 47.234375 644.613281 C 47.261719 644.707031 47.277344 644.804688 47.277344 644.902344 C 47.558594 644.953125 48.335938 644.316406 48.335938 644.316406 C 48.796875 643.949219 49.464844 644.023438 49.828125 644.480469 L 49.910156 644.597656 C 49.914062 644.601562 50.402344 645.53125 53.257812 643.601562 C 53.742188 643.273438 54.402344 643.398438 54.730469 643.882812 C 55.0625 644.371094 54.933594 645.03125 54.449219 645.359375 C 51.570312 647.304688 49.847656 647.015625 48.933594 646.484375 C 48.222656 646.902344 47.113281 647.339844 46.167969 646.761719 C 46.371094 647.425781 46.382812 648.183594 45.945312 648.972656 C 45.460938 649.855469 44.605469 650.070312 43.683594 649.972656 C 46.539062 652.289062 52.078125 655.691406 59.757812 658.578125 C 66.667969 661.171875 75.25 663.261719 85.097656 663.636719 C 85.683594 663.65625 86.144531 664.148438 86.121094 664.734375 C 86.101562 665.320312 85.609375 665.78125 85.023438 665.761719 C 74.910156 665.375 66.097656 663.230469 59.007812 660.566406 C 47.230469 656.144531 40.054688 650.074219 39.480469 648.28125 C 39.417969 648.085938 39.371094 647.898438 39.339844 647.714844 C 39.324219 647.652344 39.3125 647.589844 39.308594 647.527344 C 39.046875 645.558594 40.464844 644.464844 41.546875 643.925781 C 41.125 642.402344 41.9375 641.261719 42.726562 640.558594 C 41.351562 639.132812 39.09375 636.453125 40.296875 635.296875 C 41.765625 633.882812 47.027344 637.359375 47.449219 637.640625 C 53.441406 640.878906 61.96875 642.558594 70.753906 643.351562 C 79.621094 644.152344 88.746094 644.042969 95.8125 643.71875 Z M 48.441406 640.496094 C 47.730469 640.175781 47.046875 639.839844 46.390625 639.484375 L 46.320312 639.441406 C 46.304688 639.433594 42 636.613281 41.773438 636.832031 C 41.699219 636.902344 44.578125 639.453125 45.027344 639.847656 L 45.089844 639.898438 C 45.09375 639.902344 46.183594 640.84375 46.859375 642.050781 C 47.4375 641.40625 48.039062 640.847656 48.441406 640.496094 Z M 44.25 642.046875 C 43.800781 642.433594 43.34375 643.085938 43.859375 643.925781 C 43.894531 643.980469 43.925781 644.035156 43.953125 644.097656 C 43.953125 644.101562 44.167969 644.632812 45.222656 644.210938 C 45.207031 644.078125 45.214844 643.941406 45.25 643.804688 C 45.375 643.335938 44.75 642.570312 44.25 642.046875 Z M 42.601562 645.78125 C 42.160156 645.992188 41.628906 646.347656 41.480469 646.898438 C 42.304688 647.417969 43.867188 648.328125 44.078125 647.949219 C 44.40625 647.351562 43.761719 646.636719 43.433594 646.328125 C 43.089844 646.1875 42.816406 645.984375 42.601562 645.78125 Z M 42.601562 645.78125 " fill-opacity="1" fill-rule="nonzero"/></g><path fill="#282c44" d="M 97.71875 621.445312 L 97.777344 621.542969 C 99.082031 623.707031 101.203125 625.296875 103.925781 626.371094 C 106.953125 627.570312 110.71875 628.125 114.945312 628.125 C 119.96875 628.125 124.746094 627.339844 128.460938 625.628906 C 131.644531 624.164062 134.035156 622.011719 135.082031 619.09375 C 135.28125 618.542969 135.433594 617.96875 135.53125 617.371094 C 135.628906 616.789062 135.679688 616.167969 135.679688 615.503906 C 135.679688 613.992188 135.433594 612.527344 134.976562 611.136719 C 134.890625 610.886719 134.804688 610.640625 134.707031 610.394531 C 134.515625 610.234375 134.382812 610.007812 134.34375 609.742188 C 134.332031 609.667969 134.328125 609.597656 134.332031 609.523438 C 133.929688 608.671875 133.449219 607.855469 132.890625 607.082031 C 132.753906 606.890625 132.613281 606.703125 132.46875 606.519531 L 132.433594 606.472656 C 130.722656 604.316406 128.414062 602.511719 125.703125 601.222656 C 122.832031 599.863281 119.507812 599.082031 115.964844 599.082031 C 111.867188 599.082031 108.066406 600.121094 104.917969 601.902344 C 101.695312 603.722656 99.152344 606.3125 97.675781 609.355469 C 97.207031 610.320312 96.847656 611.328125 96.605469 612.367188 L 96.535156 612.679688 C 96.347656 613.59375 96.246094 614.535156 96.246094 615.503906 C 96.246094 616.683594 96.378906 617.769531 96.628906 618.757812 C 96.878906 619.746094 97.246094 620.640625 97.71875 621.445312 Z M 96.421875 623.347656 C 96.097656 623.457031 95.765625 623.546875 95.429688 623.621094 C 94.800781 623.753906 94.148438 623.828125 93.480469 623.828125 C 91.074219 623.828125 88.886719 622.902344 87.300781 621.40625 C 85.699219 619.894531 84.707031 617.804688 84.707031 615.492188 C 84.707031 613.179688 85.699219 611.089844 87.300781 609.578125 C 88.886719 608.082031 91.074219 607.15625 93.480469 607.15625 C 94.117188 607.15625 94.746094 607.222656 95.359375 607.351562 L 95.402344 607.359375 C 95.675781 607.417969 95.945312 607.488281 96.207031 607.570312 C 97.914062 604.511719 100.578125 601.910156 103.867188 600.050781 C 107.332031 598.09375 111.492188 596.949219 115.964844 596.949219 C 119.828125 596.949219 123.460938 597.804688 126.613281 599.300781 C 129.355469 600.601562 131.734375 602.394531 133.585938 604.535156 C 133.980469 604.378906 134.390625 604.25 134.8125 604.148438 C 135.507812 603.984375 136.226562 603.894531 136.953125 603.894531 C 139.363281 603.894531 141.546875 604.820312 143.132812 606.316406 C 144.734375 607.828125 145.726562 609.917969 145.726562 612.230469 C 145.726562 614.539062 144.734375 616.632812 143.132812 618.144531 C 141.546875 619.640625 139.363281 620.566406 136.953125 620.566406 L 136.792969 620.5625 C 135.421875 623.683594 132.777344 625.984375 129.351562 627.5625 C 125.339844 629.410156 120.253906 630.257812 114.945312 630.257812 C 110.457031 630.257812 106.429688 629.652344 103.140625 628.355469 C 100.292969 627.230469 97.992188 625.578125 96.421875 623.347656 Z M 94.980469 621.539062 L 95.328125 621.453125 C 95.011719 620.765625 94.753906 620.039062 94.558594 619.273438 C 94.265625 618.109375 94.109375 616.855469 94.109375 615.503906 C 94.109375 614.824219 94.15625 614.152344 94.242188 613.488281 C 93.160156 613.675781 91.664062 614.425781 91.597656 617.109375 C 91.585938 617.695312 91.097656 618.160156 90.511719 618.148438 C 89.921875 618.132812 89.457031 617.648438 89.472656 617.0625 C 89.589844 612.109375 92.957031 611.363281 94.675781 611.304688 C 94.84375 610.695312 95.042969 610.097656 95.277344 609.515625 L 94.925781 609.433594 C 94.46875 609.339844 93.988281 609.289062 93.480469 609.289062 C 91.632812 609.289062 89.964844 609.992188 88.761719 611.125 C 87.578125 612.246094 86.84375 613.789062 86.84375 615.492188 C 86.84375 617.195312 87.578125 618.738281 88.761719 619.859375 C 89.964844 620.992188 91.632812 621.695312 93.480469 621.695312 C 94 621.695312 94.503906 621.640625 94.980469 621.539062 Z M 136.199219 608.488281 C 137.90625 608.535156 141.3125 609.261719 141.429688 614.242188 C 141.445312 614.828125 140.980469 615.316406 140.390625 615.328125 C 139.804688 615.34375 139.316406 614.878906 139.304688 614.292969 C 139.246094 611.953125 138.105469 611.085938 137.097656 610.773438 C 137.566406 612.285156 137.816406 613.871094 137.816406 615.503906 C 137.816406 616.265625 137.753906 617.003906 137.632812 617.71875 C 137.59375 617.957031 137.550781 618.1875 137.5 618.414062 C 139.128906 618.289062 140.589844 617.617188 141.671875 616.59375 C 142.859375 615.476562 143.59375 613.933594 143.59375 612.230469 C 143.59375 610.527344 142.859375 608.980469 141.671875 607.863281 C 140.46875 606.730469 138.800781 606.027344 136.953125 606.027344 C 136.371094 606.027344 135.816406 606.089844 135.304688 606.214844 L 134.945312 606.308594 C 135.417969 607.007812 135.835938 607.738281 136.199219 608.488281 Z M 136.199219 608.488281 " fill-opacity="1" fill-rule="nonzero"/><path fill="#282c44" d="M 105.734375 618.730469 C 105.417969 618.238281 105.566406 617.582031 106.058594 617.265625 C 106.554688 616.949219 107.214844 617.097656 107.527344 617.589844 C 107.535156 617.601562 109.738281 621.207031 115.828125 621.257812 C 121.867188 621.308594 124.359375 616.742188 124.363281 616.726562 C 124.652344 616.214844 125.300781 616.03125 125.816406 616.320312 C 126.328125 616.609375 126.511719 617.257812 126.222656 617.769531 C 126.214844 617.785156 123.128906 623.445312 115.8125 623.382812 C 108.546875 623.320312 105.742188 618.742188 105.734375 618.730469 Z M 113.957031 607.898438 C 113.667969 607.386719 113.851562 606.738281 114.363281 606.449219 C 114.878906 606.164062 115.527344 606.347656 115.816406 606.859375 C 115.820312 606.871094 118.511719 611.519531 116.011719 614.3125 C 115.617188 614.75 114.945312 614.785156 114.507812 614.394531 C 114.070312 614.003906 114.035156 613.332031 114.425781 612.894531 C 115.890625 611.261719 113.960938 607.910156 113.953125 607.898438 Z M 113.957031 607.898438 " fill-opacity="1" fill-rule="nonzero"/><path fill="#282c44" d="M 103.765625 620.199219 C 103.179688 620.222656 102.683594 619.765625 102.664062 619.179688 C 102.640625 618.59375 103.097656 618.097656 103.683594 618.078125 C 103.691406 618.078125 106.152344 618.035156 106.644531 616.5625 C 106.828125 616.007812 107.429688 615.707031 107.988281 615.890625 C 108.542969 616.074219 108.847656 616.675781 108.660156 617.230469 C 107.683594 620.15625 103.777344 620.199219 103.765625 620.199219 Z M 103.765625 620.199219 " fill-opacity="1" fill-rule="nonzero"/><path fill="#282c44" d="M 123.117188 616.582031 C 122.886719 616.042969 123.136719 615.417969 123.679688 615.1875 C 124.21875 614.957031 124.84375 615.207031 125.074219 615.75 C 125.074219 615.75 125.535156 616.785156 127.382812 616.570312 C 127.96875 616.503906 128.496094 616.925781 128.5625 617.507812 C 128.628906 618.09375 128.210938 618.621094 127.625 618.6875 C 124.210938 619.078125 123.117188 616.589844 123.117188 616.582031 Z M 123.117188 616.582031 " fill-opacity="1" fill-rule="nonzero"/><path fill="#282c44" d="M 108.40625 607.390625 C 109.265625 607.390625 109.960938 608.535156 109.960938 609.945312 C 109.960938 611.359375 109.265625 612.503906 108.40625 612.503906 C 107.546875 612.503906 106.851562 611.359375 106.851562 609.945312 C 106.851562 608.535156 107.546875 607.390625 108.40625 607.390625 Z M 108.40625 607.390625 " fill-opacity="1" fill-rule="evenodd"/><path fill="#282c44" d="M 123.28125 607.023438 C 124.140625 607.023438 124.835938 608.167969 124.835938 609.582031 C 124.835938 610.992188 124.140625 612.136719 123.28125 612.136719 C 122.425781 612.136719 121.726562 610.992188 121.726562 609.582031 C 121.726562 608.167969 122.425781 607.023438 123.28125 607.023438 Z M 123.28125 607.023438 " fill-opacity="1" fill-rule="evenodd"/><path fill="#282c44" d="M 92.085938 608.457031 C 92.164062 609.039062 91.753906 609.574219 91.171875 609.652344 C 90.589844 609.730469 90.050781 609.320312 89.972656 608.742188 C 89.96875 608.699219 88.070312 596.164062 98.378906 591.960938 C 97.503906 591.050781 97.117188 590.152344 97.121094 589.300781 C 97.132812 587.949219 98.066406 586.859375 99.625 586.066406 C 100.933594 585.40625 102.734375 584.933594 104.78125 584.699219 C 111.257812 583.953125 120.476562 585.558594 124.464844 591.003906 C 124.828125 591.5 125.125 591.960938 125.359375 592.386719 C 128.285156 593.261719 130.667969 594.503906 132.589844 595.863281 C 137.585938 599.398438 139.5 603.800781 139.855469 604.839844 C 140.042969 605.394531 139.746094 606 139.1875 606.1875 C 138.628906 606.378906 138.027344 606.078125 137.835938 605.523438 C 137.53125 604.621094 135.84375 600.773438 131.355469 597.597656 C 129.910156 596.574219 128.175781 595.625 126.101562 594.871094 C 126.058594 595.527344 125.753906 596.019531 125.265625 596.378906 C 124.089844 597.238281 121.664062 596.839844 119.59375 596.027344 C 117.390625 595.167969 115.507812 593.695312 115.667969 592.59375 C 115.828125 591.519531 117.324219 590.890625 121.074219 591.441406 C 121.46875 591.5 121.859375 591.566406 122.242188 591.636719 C 118.511719 587.386719 110.660156 586.164062 105.023438 586.8125 C 103.21875 587.019531 101.667969 587.417969 100.582031 587.964844 C 99.75 588.386719 99.25 588.851562 99.25 589.308594 C 99.246094 589.804688 99.695312 590.4375 100.730469 591.203125 C 101.695312 590.972656 102.738281 590.796875 103.875 590.699219 C 108.417969 590.304688 111.097656 590.820312 112.328125 591.59375 C 113.515625 592.339844 113.757812 593.328125 113.253906 594.289062 C 112.890625 594.976562 112.046875 595.574219 110.855469 595.898438 L 110.855469 595.902344 C 108.570312 596.523438 104.632812 596.257812 100.371094 593.53125 C 90.308594 596.71875 92.078125 608.417969 92.082031 608.457031 Z M 104.058594 592.820312 L 103.578125 592.871094 C 106.382812 594.160156 108.800781 594.253906 110.296875 593.847656 L 110.296875 593.851562 C 110.898438 593.6875 111.273438 593.488281 111.367188 593.304688 C 111.414062 593.214844 111.257812 593.433594 111.195312 593.394531 C 110.292969 592.828125 108.085938 592.472656 104.058594 592.820312 Z M 124.007812 594.660156 C 124.082031 594.605469 124.082031 594.460938 123.972656 594.207031 C 122.972656 593.9375 121.902344 593.714844 120.765625 593.546875 C 118.558594 593.226562 117.796875 592.785156 117.777344 592.902344 C 117.769531 592.976562 118.996094 593.511719 120.371094 594.046875 C 121.878906 594.636719 123.5 595.03125 124.007812 594.660156 Z M 124.007812 594.660156 " fill-opacity="1" fill-rule="nonzero"/><path fill="#9bd4c8" d="M 325.488281 669.019531 L 329.535156 669.019531 C 334.808594 669.019531 339.125 673.335938 339.125 678.605469 L 339.125 703.941406 C 339.125 709.210938 334.808594 713.527344 329.535156 713.527344 L 304.1875 713.527344 C 298.910156 713.527344 294.597656 709.210938 294.597656 703.941406 L 294.597656 697.125 C 293.386719 697.25 292.160156 697.3125 290.921875 697.3125 C 271.453125 697.3125 255.667969 681.539062 255.667969 662.082031 C 255.667969 642.621094 271.453125 626.847656 290.921875 626.847656 C 310.390625 626.847656 326.171875 642.621094 326.171875 662.082031 C 326.171875 664.457031 325.933594 666.777344 325.488281 669.019531 Z M 325.488281 669.019531 " fill-opacity="1" fill-rule="evenodd"/><path fill="#282c44" d="M 257.363281 647.660156 C 257.945312 647.144531 258.832031 647.195312 259.347656 647.773438 C 259.863281 648.355469 259.8125 649.242188 259.234375 649.757812 C 257.148438 651.609375 253.257812 654.511719 247.476562 656.648438 C 241.730469 658.769531 234.101562 660.148438 224.5 658.996094 C 217.875 658.203125 212.742188 654.976562 209.285156 650.425781 C 206.460938 646.703125 204.773438 642.097656 204.332031 637.214844 C 203.890625 632.359375 204.675781 627.226562 206.792969 622.421875 C 209.96875 615.214844 216.128906 608.738281 225.613281 605.042969 C 225.691406 605.011719 225.773438 604.988281 225.855469 604.972656 C 226.546875 604.808594 232.992188 603.25 233.019531 602.53125 C 233.023438 602.40625 225.398438 603.746094 225.375 603.75 C 224.609375 603.882812 223.882812 603.371094 223.75 602.605469 C 223.617188 601.84375 224.128906 601.113281 224.890625 600.980469 C 224.921875 600.976562 235.960938 599.015625 235.820312 602.628906 C 235.714844 605.429688 227.558594 607.449219 226.546875 607.6875 C 217.878906 611.085938 212.253906 616.992188 209.363281 623.554688 C 207.441406 627.921875 206.722656 632.574219 207.121094 636.964844 C 207.519531 641.332031 209.015625 645.4375 211.519531 648.734375 C 214.527344 652.699219 219.019531 655.507812 224.832031 656.207031 C 233.921875 657.296875 241.113281 656.003906 246.507812 654.011719 C 251.863281 652.03125 255.445312 649.363281 257.363281 647.660156 Z M 257.363281 647.660156 " fill-opacity="1" fill-rule="nonzero"/><path fill="#282c44" d="M 216.074219 608.667969 C 216.292969 609.410156 215.863281 610.1875 215.121094 610.402344 C 214.375 610.617188 213.597656 610.191406 213.382812 609.445312 C 213.378906 609.433594 211.992188 605.03125 216.105469 602.984375 C 215.539062 601.160156 214.984375 598.027344 217.375 596.957031 C 220.941406 595.355469 223.53125 603.335938 223.539062 603.359375 C 223.78125 604.09375 223.382812 604.886719 222.648438 605.128906 C 221.914062 605.371094 221.121094 604.972656 220.878906 604.238281 C 220.875 604.222656 219.214844 599.203125 218.519531 599.515625 C 217.78125 599.84375 218.941406 602.65625 219.160156 603.167969 C 219.199219 603.246094 219.230469 603.328125 219.257812 603.414062 C 219.46875 604.160156 219.035156 604.9375 218.289062 605.148438 C 215.238281 606.015625 216.074219 608.660156 216.078125 608.667969 Z M 216.074219 608.667969 " fill-opacity="1" fill-rule="nonzero"/><path fill="#282c44" d="M 226.359375 603.046875 C 225.984375 603.722656 225.128906 603.964844 224.453125 603.589844 C 223.777344 603.214844 223.53125 602.359375 223.910156 601.683594 C 223.910156 601.679688 224.898438 599.898438 224.210938 599.46875 C 223.128906 598.800781 220.683594 600.34375 220.675781 600.347656 C 220.019531 600.761719 219.15625 600.5625 218.742188 599.910156 C 218.328125 599.253906 218.527344 598.390625 219.183594 597.976562 C 219.191406 597.96875 223.113281 595.496094 225.683594 597.085938 C 228.648438 598.917969 226.367188 603.035156 226.359375 603.046875 Z M 226.359375 603.046875 " fill-opacity="1" fill-rule="nonzero"/><path fill="#282c44" d="M 225.207031 597.886719 C 225.238281 598.660156 224.636719 599.3125 223.863281 599.339844 C 223.089844 599.371094 222.4375 598.769531 222.40625 597.996094 C 222.40625 597.988281 222.347656 595.648438 219.726562 596.019531 C 218.261719 596.226562 217.019531 597.148438 216.425781 598.097656 C 216.265625 598.351562 216.167969 598.589844 216.144531 598.785156 L 216.136719 598.898438 C 216.214844 599.007812 216.5 599.089844 217.054688 599.109375 C 217.828125 599.136719 218.433594 599.789062 218.40625 600.5625 C 218.378906 601.335938 217.730469 601.9375 216.953125 601.910156 C 215.40625 601.855469 214.394531 601.308594 213.828125 600.492188 C 213.417969 599.898438 213.269531 599.214844 213.347656 598.496094 L 213.351562 598.445312 C 213.425781 597.839844 213.667969 597.214844 214.039062 596.613281 C 215.007812 595.066406 217.007812 593.570312 219.339844 593.238281 C 225.074219 592.429688 225.207031 597.871094 225.207031 597.886719 Z M 225.207031 597.886719 " fill-opacity="1" fill-rule="nonzero"/><path fill="#282c44" d="M 215.761719 594.957031 C 216.515625 594.773438 217.273438 595.238281 217.453125 595.988281 C 217.636719 596.742188 217.175781 597.5 216.421875 597.679688 C 216.339844 597.699219 187.40625 604.234375 186.304688 645.503906 C 185.054688 692.332031 260.757812 679.675781 260.972656 679.640625 C 261.738281 679.519531 262.457031 680.042969 262.578125 680.804688 C 262.699219 681.570312 262.179688 682.289062 261.414062 682.410156 C 261.1875 682.445312 182.164062 695.671875 183.503906 645.4375 C 184.660156 601.988281 215.671875 594.976562 215.761719 594.957031 Z M 215.761719 594.957031 " fill-opacity="1" fill-rule="nonzero"/><path fill="#282c44" d="M 313.832031 635.960938 C 313.15625 636.335938 312.304688 636.09375 311.925781 635.417969 C 311.550781 634.742188 311.792969 633.886719 312.472656 633.511719 C 312.726562 633.371094 401.140625 584.0625 408.484375 586.59375 C 418.566406 590.070312 401.464844 598.011719 401.414062 598.035156 C 400.714844 598.367188 399.875 598.070312 399.542969 597.371094 C 399.207031 596.667969 399.507812 595.828125 400.207031 595.496094 C 400.238281 595.480469 410.992188 590.429688 407.570312 589.253906 C 401.414062 587.128906 314.085938 635.820312 313.832031 635.960938 Z M 313.832031 635.960938 " fill-opacity="1" fill-rule="nonzero"/><path fill="#282c44" d="M 387.78125 610.824219 C 387.003906 610.824219 386.375 610.195312 386.375 609.417969 C 386.375 608.640625 387.003906 608.011719 387.78125 608.011719 C 387.792969 608.011719 391.636719 608.09375 391.550781 602.574219 C 391.542969 601.800781 392.164062 601.167969 392.9375 601.15625 C 393.355469 601.152344 393.730469 601.332031 393.988281 601.617188 C 394.007812 601.628906 399.324219 607.546875 399.992188 606.464844 C 401.113281 604.644531 393.664062 597.019531 393.644531 597 C 393.097656 596.449219 393.105469 595.558594 393.660156 595.015625 C 394.210938 594.472656 395.101562 594.480469 395.644531 595.03125 C 395.667969 595.058594 404.644531 604.273438 402.386719 607.9375 C 400.578125 610.875 396.535156 607.929688 394.035156 605.636719 C 392.714844 610.917969 387.796875 610.824219 387.78125 610.824219 Z M 387.78125 610.824219 " fill-opacity="1" fill-rule="nonzero"/><path fill="#282c44" d="M 400.589844 598.148438 C 399.828125 598.027344 399.304688 597.308594 399.425781 596.546875 C 399.546875 595.78125 400.265625 595.261719 401.03125 595.382812 C 401.050781 595.382812 408.292969 596.457031 408.71875 600.558594 C 409.1875 605.078125 400.8125 605.367188 400.789062 605.367188 C 400.015625 605.402344 399.355469 604.804688 399.320312 604.03125 C 399.285156 603.257812 399.882812 602.601562 400.65625 602.566406 C 400.671875 602.566406 406.082031 602.34375 405.925781 600.84375 C 405.730469 598.933594 400.605469 598.152344 400.589844 598.148438 Z M 400.589844 598.148438 " fill-opacity="1" fill-rule="nonzero"/><path fill="#282c44" d="M 399.550781 601.777344 C 398.957031 602.277344 398.070312 602.203125 397.570312 601.609375 C 397.070312 601.019531 397.144531 600.132812 397.734375 599.632812 C 397.742188 599.628906 400.457031 597.269531 403.652344 598.128906 C 404.402344 598.328125 404.847656 599.097656 404.648438 599.847656 C 404.445312 600.59375 403.675781 601.039062 402.925781 600.839844 C 401.171875 600.371094 399.554688 601.773438 399.550781 601.777344 Z M 399.550781 601.777344 " fill-opacity="1" fill-rule="nonzero"/><path fill="#282c44" d="M 406.335938 603.125 C 405.65625 602.75 405.410156 601.898438 405.78125 601.21875 C 406.15625 600.539062 407.011719 600.289062 407.691406 600.664062 C 407.703125 600.671875 412.664062 603.390625 408.542969 607.875 C 407.328125 609.199219 405.898438 610.019531 404.523438 610.417969 C 403.539062 610.703125 402.570312 610.773438 401.722656 610.660156 C 400.765625 610.535156 399.929688 610.175781 399.328125 609.621094 C 398.902344 609.230469 398.589844 608.746094 398.425781 608.175781 C 398.210938 607.433594 398.636719 606.65625 399.378906 606.441406 C 400.125 606.226562 400.902344 606.652344 401.117188 607.398438 C 401.132812 607.449219 401.171875 607.503906 401.230469 607.554688 C 401.40625 607.71875 401.707031 607.832031 402.085938 607.882812 C 402.570312 607.945312 403.140625 607.902344 403.746094 607.726562 C 404.660156 607.460938 405.632812 606.898438 406.476562 605.972656 C 408.171875 604.128906 406.34375 603.125 406.339844 603.125 Z M 406.335938 603.125 " fill-opacity="1" fill-rule="nonzero"/><path fill="#282c44" d="M 400.867188 608.03125 C 401.527344 607.621094 402.394531 607.824219 402.804688 608.480469 C 403.210938 609.140625 403.011719 610.003906 402.351562 610.414062 L 326.496094 657.820312 C 325.835938 658.230469 324.96875 658.03125 324.558594 657.371094 C 324.152344 656.714844 324.351562 655.847656 325.011719 655.4375 Z M 400.867188 608.03125 " fill-opacity="1" fill-rule="nonzero"/><path fill="#282c44" d="M 340.269531 686.59375 C 339.820312 687.226562 338.949219 687.375 338.316406 686.929688 C 337.6875 686.484375 337.535156 685.609375 337.980469 684.980469 C 338.085938 684.832031 374.308594 633.109375 405.679688 658.902344 C 434.808594 682.851562 393.070312 739.75 387.109375 747.570312 L 397.535156 759.847656 C 398.035156 760.441406 397.960938 761.324219 397.371094 761.828125 C 396.96875 762.164062 396.4375 762.238281 395.980469 762.074219 L 357.867188 747.988281 C 357.136719 747.722656 356.761719 746.914062 357.03125 746.1875 C 357.089844 746.027344 357.171875 745.886719 357.277344 745.765625 C 358.875 743.5 389.394531 699.96875 380.914062 688.277344 C 372.578125 676.785156 339.527344 708.351562 339.433594 708.441406 C 338.871094 708.972656 337.980469 708.953125 337.449219 708.390625 C 336.914062 707.828125 336.9375 706.941406 337.5 706.40625 C 337.601562 706.3125 372.945312 672.511719 383.1875 686.628906 C 392.03125 698.824219 366.121094 737.851562 360.535156 745.980469 L 391.925781 757.582031 L 384.230469 748.523438 C 383.8125 748.023438 383.785156 747.285156 384.199219 746.753906 C 384.335938 746.574219 433.03125 685.019531 403.898438 661.066406 C 374.871094 637.203125 340.367188 686.453125 340.265625 686.59375 Z M 340.269531 686.59375 " fill-opacity="1" fill-rule="nonzero"/><g clip-path="url(#80f7bcfd08)"><path fill="#282c44" d="M 287.402344 696.109375 C 288.011719 695.632812 288.890625 695.742188 289.367188 696.351562 C 289.84375 696.960938 289.738281 697.84375 289.125 698.316406 L 217.347656 754.371094 C 217.03125 754.617188 216.640625 754.707031 216.273438 754.652344 L 216.269531 754.65625 L 196.144531 751.554688 L 232.339844 774.234375 L 296.082031 709.378906 C 296.625 708.828125 297.515625 708.820312 298.066406 709.363281 C 298.621094 709.90625 298.628906 710.792969 298.085938 711.347656 L 233.550781 777 C 233.097656 777.457031 232.375 777.558594 231.808594 777.203125 L 189.019531 750.390625 C 188.480469 750.128906 188.152344 749.539062 188.25 748.914062 C 188.367188 748.148438 189.085938 747.621094 189.851562 747.738281 L 216.105469 751.785156 Z M 287.402344 696.109375 " fill-opacity="1" fill-rule="nonzero"/></g><path fill="#282c44" d="M 264.695312 628.707031 L 264.746094 628.765625 C 266.988281 631.253906 270.144531 632.785156 273.945312 633.488281 C 278.164062 634.269531 283.171875 634.03125 288.640625 632.960938 C 295.140625 631.6875 301.121094 629.457031 305.488281 626.300781 C 309.234375 623.597656 311.777344 620.210938 312.390625 616.164062 C 312.507812 615.390625 312.558594 614.609375 312.535156 613.816406 C 312.515625 613.039062 312.421875 612.21875 312.253906 611.363281 C 311.867188 609.40625 311.179688 607.570312 310.230469 605.890625 C 310.058594 605.585938 309.878906 605.285156 309.691406 604.992188 C 309.40625 604.832031 309.171875 604.570312 309.054688 604.234375 C 309.027344 604.144531 309.003906 604.058594 308.992188 603.96875 C 308.257812 602.96875 307.421875 602.03125 306.503906 601.167969 C 306.289062 600.964844 306.070312 600.769531 305.84375 600.574219 L 305.71875 600.46875 C 302.964844 598.125 299.535156 596.382812 295.71875 595.410156 C 291.652344 594.375 287.15625 594.207031 282.578125 595.105469 C 277.28125 596.144531 272.632812 598.453125 269.007812 601.558594 C 265.304688 604.730469 262.679688 608.730469 261.542969 613.042969 C 261.179688 614.414062 260.96875 615.808594 260.917969 617.214844 L 260.910156 617.59375 C 260.894531 618.835938 261.003906 620.097656 261.253906 621.367188 C 261.554688 622.890625 261.996094 624.257812 262.574219 625.472656 C 263.152344 626.699219 263.863281 627.777344 264.695312 628.707031 Z M 263.472656 631.472656 C 263.078125 631.695312 262.675781 631.898438 262.261719 632.078125 C 261.484375 632.410156 260.660156 632.667969 259.792969 632.839844 C 256.679688 633.449219 253.617188 632.804688 251.1875 631.269531 C 248.730469 629.722656 246.917969 627.265625 246.328125 624.273438 C 245.742188 621.28125 246.492188 618.324219 248.179688 615.964844 C 249.851562 613.625 252.445312 611.871094 255.558594 611.261719 C 256.378906 611.101562 257.207031 611.027344 258.027344 611.035156 C 258.417969 611.042969 258.804688 611.066406 259.1875 611.105469 C 260.617188 606.710938 263.398438 602.667969 267.183594 599.425781 C 271.164062 596.015625 276.257812 593.484375 282.039062 592.347656 C 287.042969 591.367188 291.957031 591.550781 296.410156 592.6875 C 300.285156 593.675781 303.816406 595.390625 306.753906 597.691406 C 307.222656 597.394531 307.71875 597.125 308.238281 596.886719 C 309.09375 596.496094 310.003906 596.199219 310.949219 596.011719 C 314.0625 595.402344 317.125 596.046875 319.554688 597.582031 C 322.007812 599.128906 323.824219 601.585938 324.410156 604.578125 C 325 607.570312 324.25 610.527344 322.5625 612.886719 C 320.890625 615.226562 318.296875 616.980469 315.179688 617.589844 L 314.976562 617.628906 C 313.996094 622.015625 311.15625 625.664062 307.128906 628.578125 C 302.410156 631.984375 296.046875 634.371094 289.179688 635.71875 C 283.386719 636.855469 278.023438 637.09375 273.4375 636.246094 C 269.464844 635.511719 266.070312 633.957031 263.472656 631.472656 Z M 261.152344 629.496094 L 261.582031 629.296875 C 260.996094 628.492188 260.480469 627.613281 260.03125 626.671875 C 259.355469 625.242188 258.835938 623.652344 258.496094 621.902344 C 258.320312 621.023438 258.207031 620.144531 258.148438 619.261719 C 256.796875 619.78125 255.058594 621.132812 255.65625 624.625 C 255.785156 625.386719 255.273438 626.113281 254.507812 626.242188 C 253.742188 626.375 253.015625 625.859375 252.886719 625.097656 C 251.78125 618.648438 255.957031 616.835938 258.15625 616.328125 C 258.21875 615.496094 258.328125 614.671875 258.480469 613.855469 L 258.007812 613.839844 C 257.394531 613.832031 256.753906 613.890625 256.097656 614.019531 C 253.710938 614.484375 251.734375 615.816406 250.464844 617.589844 C 249.214844 619.34375 248.65625 621.527344 249.089844 623.734375 C 249.523438 625.9375 250.863281 627.75 252.683594 628.898438 C 254.527344 630.0625 256.863281 630.546875 259.253906 630.082031 C 259.921875 629.949219 260.554688 629.75 261.152344 629.496094 Z M 311.136719 602.152344 C 313.355469 601.78125 317.945312 601.851562 319.367188 608.273438 C 319.535156 609.027344 319.054688 609.777344 318.300781 609.941406 C 317.546875 610.109375 316.796875 609.632812 316.628906 608.875 C 315.960938 605.863281 314.265625 605.027344 312.882812 604.878906 C 313.871094 606.71875 314.597656 608.707031 315.011719 610.824219 C 315.203125 611.804688 315.3125 612.777344 315.339844 613.738281 C 315.347656 614.054688 315.347656 614.363281 315.339844 614.667969 C 317.414062 614.097656 319.132812 612.859375 320.277344 611.261719 C 321.527344 609.507812 322.085938 607.324219 321.652344 605.117188 C 321.21875 602.914062 319.878906 601.101562 318.058594 599.953125 C 316.214844 598.789062 313.878906 598.304688 311.488281 598.769531 C 310.742188 598.917969 310.042969 599.144531 309.40625 599.433594 L 308.96875 599.648438 C 309.753906 600.433594 310.480469 601.269531 311.136719 602.152344 Z M 311.136719 602.152344 " fill-opacity="1" fill-rule="nonzero"/><path fill="#282c44" d="M 274.332031 623.125 C 273.804688 622.558594 273.835938 621.667969 274.402344 621.140625 C 274.972656 620.613281 275.859375 620.648438 276.386719 621.214844 C 276.398438 621.226562 280.15625 625.320312 288.042969 623.84375 C 295.867188 622.378906 297.929688 615.835938 297.933594 615.816406 C 298.175781 615.082031 298.96875 614.683594 299.703125 614.925781 C 300.4375 615.167969 300.835938 615.960938 300.59375 616.695312 C 300.585938 616.71875 298.03125 624.828125 288.558594 626.601562 C 279.144531 628.367188 274.34375 623.140625 274.332031 623.125 Z M 282.226562 607.03125 C 281.722656 606.441406 281.792969 605.558594 282.378906 605.054688 C 282.96875 604.550781 283.855469 604.621094 284.359375 605.207031 C 284.371094 605.222656 289.035156 610.566406 286.515625 614.808594 C 286.121094 615.476562 285.257812 615.695312 284.589844 615.300781 C 283.921875 614.90625 283.703125 614.046875 284.097656 613.378906 C 285.578125 610.882812 282.234375 607.042969 282.226562 607.03125 Z M 282.226562 607.03125 " fill-opacity="1" fill-rule="nonzero"/><path fill="#282c44" d="M 272.125 625.550781 C 271.363281 625.703125 270.621094 625.207031 270.46875 624.445312 C 270.320312 623.683594 270.8125 622.945312 271.574219 622.792969 C 271.582031 622.789062 274.707031 622.136719 274.96875 620.097656 C 275.066406 619.332031 275.765625 618.789062 276.535156 618.886719 C 277.300781 618.980469 277.847656 619.683594 277.75 620.449219 C 277.230469 624.472656 272.140625 625.546875 272.125 625.550781 Z M 272.125 625.550781 " fill-opacity="1" fill-rule="nonzero"/><path fill="#282c44" d="M 296.28125 615.953125 C 295.84375 615.316406 296.003906 614.441406 296.640625 614.003906 C 297.277344 613.5625 298.152344 613.722656 298.589844 614.359375 C 298.59375 614.363281 299.453125 615.597656 301.792969 614.855469 C 302.53125 614.621094 303.320312 615.03125 303.554688 615.765625 C 303.785156 616.503906 303.378906 617.289062 302.640625 617.523438 C 298.328125 618.894531 296.289062 615.960938 296.28125 615.953125 Z M 296.28125 615.953125 " fill-opacity="1" fill-rule="nonzero"/><path fill="#282c44" d="M 274.917969 607.777344 C 276.027344 607.558594 277.21875 608.863281 277.578125 610.691406 C 277.9375 612.519531 277.328125 614.175781 276.21875 614.394531 C 275.105469 614.613281 273.917969 613.308594 273.558594 611.480469 C 273.199219 609.652344 273.808594 607.992188 274.917969 607.777344 Z M 274.917969 607.777344 " fill-opacity="1" fill-rule="evenodd"/><path fill="#282c44" d="M 294.0625 603.53125 C 295.171875 603.3125 296.363281 604.617188 296.722656 606.445312 C 297.082031 608.273438 296.472656 609.933594 295.363281 610.148438 C 294.253906 610.367188 293.0625 609.0625 292.703125 607.234375 C 292.34375 605.40625 292.953125 603.75 294.0625 603.53125 Z M 294.0625 603.53125 " fill-opacity="1" fill-rule="evenodd"/><path fill="#282c44" d="M 259.425781 599.859375 C 258.816406 599.378906 258.710938 598.496094 259.191406 597.886719 C 259.671875 597.277344 260.554688 597.171875 261.164062 597.652344 L 270.734375 605.1875 C 271.34375 605.667969 271.449219 606.550781 270.96875 607.160156 C 270.492188 607.769531 269.605469 607.875 268.996094 607.398438 Z M 259.425781 599.859375 " fill-opacity="1" fill-rule="nonzero"/><path fill="#282c44" d="M 268.148438 593.832031 C 267.777344 593.152344 268.027344 592.300781 268.707031 591.929688 C 269.386719 591.5625 270.238281 591.8125 270.609375 592.492188 L 275.636719 601.730469 C 276.007812 602.410156 275.757812 603.261719 275.078125 603.632812 C 274.398438 604.003906 273.546875 603.75 273.175781 603.070312 Z M 268.148438 593.832031 " fill-opacity="1" fill-rule="nonzero"/><path fill="#282c44" d="M 275.574219 589.996094 C 275.351562 589.253906 275.777344 588.46875 276.519531 588.25 C 277.261719 588.027344 278.046875 588.449219 278.265625 589.195312 L 281.269531 599.164062 C 281.488281 599.90625 281.066406 600.691406 280.324219 600.910156 C 279.578125 601.132812 278.796875 600.710938 278.574219 599.964844 Z M 275.574219 589.996094 " fill-opacity="1" fill-rule="nonzero"/><path fill="#282c44" d="M 283.796875 587.953125 C 283.71875 587.183594 284.28125 586.496094 285.050781 586.417969 C 285.820312 586.339844 286.511719 586.898438 286.589844 587.667969 L 287.644531 597.800781 C 287.722656 598.570312 287.160156 599.261719 286.390625 599.339844 C 285.621094 599.417969 284.929688 598.855469 284.851562 598.085938 Z M 283.796875 587.953125 " fill-opacity="1" fill-rule="nonzero"/><path fill="#282c44" d="M 292.144531 587.53125 C 292.167969 586.757812 292.8125 586.148438 293.585938 586.167969 C 294.359375 586.1875 294.96875 586.832031 294.949219 587.605469 L 294.625 598.0625 C 294.601562 598.835938 293.957031 599.445312 293.183594 599.425781 C 292.410156 599.40625 291.800781 598.761719 291.820312 597.988281 Z M 292.144531 587.53125 " fill-opacity="1" fill-rule="nonzero"/><path fill="#282c44" d="M 300.554688 589.796875 C 300.890625 589.097656 301.730469 588.804688 302.429688 589.140625 C 303.125 589.476562 303.417969 590.316406 303.082031 591.015625 L 299.351562 598.714844 C 299.015625 599.414062 298.175781 599.707031 297.476562 599.371094 C 296.78125 599.035156 296.488281 598.195312 296.824219 597.496094 Z M 300.554688 589.796875 " fill-opacity="1" fill-rule="nonzero"/><path fill="#282c44" d="M 230.640625 742.875 L 234.507812 756.261719 L 249.597656 757.375 L 249.402344 760.175781 L 232.355469 758.917969 L 227.945312 743.65625 Z M 230.640625 742.875 " fill-opacity="1" fill-rule="nonzero"/><path fill="#282c44" d="M 375.480469 721.625 L 380.054688 732.535156 L 398.011719 726.804688 L 398.859375 729.472656 L 378.457031 735.984375 L 372.886719 722.699219 Z M 375.480469 721.625 " fill-opacity="1" fill-rule="nonzero"/><g mask="url(#956e4682bc)"><g transform="matrix(1, 0, 0, 1, 1036, 0.000000000000039746)"><g clip-path="url(#567aef55b4)"><g clip-path="url(#73465d2211)"><g clip-path="url(#46655e1b45)"><g transform="matrix(1, 0, 0, 1, 0, 0.000000000000039746)"><g clip-path="url(#5236e264b7)"><g clip-path="url(#cab1945d35)"><g clip-path="url(#8e85c9b7ce)"><path fill="#c1ff72" d="M 0.964844 -191.050781 L 525.527344 -191.050781 L 525.527344 386.789062 L 0.964844 386.789062 Z M 0.964844 -191.050781 " fill-opacity="1" fill-rule="nonzero"/></g></g></g></g></g></g></g></g></g><g transform="matrix(1, 0, 0, 1, 1018, 50)"><g clip-path="url(#96691893e2)"><g clip-path="url(#8aebc876e6)"><g transform="matrix(1, 0, 0, 1, 1, 0.000000000000035527)"><g clip-path="url(#186a56ef65)"><path fill="#e0b5eb" d="M 92.816406 51.082031 C 107.808594 51.082031 121.105469 57.152344 129.378906 66.511719 C 130.6875 68.066406 135.589844 74.730469 132.773438 84.476562 C 130.316406 92.980469 123.546875 95.113281 118.917969 95.363281 C 117.761719 95.257812 116.582031 95.191406 115.386719 95.183594 L 115.382812 95.183594 C 115.226562 95.152344 115.066406 95.15625 114.914062 95.1875 C 107.050781 95.238281 98.429688 97.984375 91.132812 109.851562 C 72.097656 140.820312 42.335938 112.710938 47.382812 89.050781 C 52.429688 65.386719 67.722656 51.082031 92.816406 51.082031 Z M 92.816406 51.082031 " fill-opacity="1" fill-rule="evenodd"/><path fill="#282c44" d="M 62.289062 120.480469 C 62.339844 119.722656 61.773438 119.066406 61.015625 119.015625 C 60.261719 118.960938 59.605469 119.53125 59.554688 120.285156 L 53.644531 203.261719 L 41.945312 208.746094 C 41.261719 209.066406 40.964844 209.878906 41.285156 210.5625 C 41.515625 211.058594 42.007812 211.351562 42.523438 211.351562 L 42.523438 211.359375 L 77.859375 211.359375 C 78.613281 211.359375 79.230469 210.742188 79.230469 209.984375 L 76.144531 123.644531 C 76.117188 122.886719 75.484375 122.296875 74.730469 122.324219 C 73.976562 122.351562 73.382812 122.984375 73.410156 123.738281 L 76.4375 208.613281 L 48.671875 208.613281 L 55.445312 205.433594 C 55.925781 205.25 56.28125 204.800781 56.320312 204.25 L 62.289062 120.476562 Z M 62.289062 120.480469 " fill-opacity="1" fill-rule="nonzero"/><g clip-path="url(#46dd58cf72)"><path fill="#282c44" d="M 121.921875 95.105469 C 121.679688 94.390625 120.902344 94.003906 120.183594 94.246094 C 119.46875 94.488281 119.085938 95.269531 119.328125 95.984375 L 150.890625 188.753906 C 151.074219 189.296875 151.566406 189.652344 152.109375 189.683594 L 163.992188 191.179688 L 133.921875 205.425781 L 108.320312 96.027344 C 108.148438 95.289062 107.410156 94.832031 106.675781 95.003906 C 105.9375 95.175781 105.480469 95.910156 105.652344 96.648438 L 131.636719 207.699219 C 131.660156 207.792969 131.691406 207.882812 131.734375 207.972656 C 132.058594 208.65625 132.875 208.949219 133.558594 208.628906 L 169.402344 191.648438 C 169.8125 191.449219 170.117188 191.058594 170.175781 190.574219 C 170.265625 189.824219 169.734375 189.144531 168.984375 189.050781 L 153.207031 187.066406 Z M 121.921875 95.105469 " fill-opacity="1" fill-rule="nonzero"/></g><path fill="#282c44" d="M 110.253906 53.554688 C 109.800781 54.160156 109.921875 55.015625 110.527344 55.46875 C 111.128906 55.921875 111.988281 55.800781 112.441406 55.195312 L 141.097656 16.96875 C 141.1875 17.308594 141.410156 17.613281 141.738281 17.804688 C 142.398438 18.179688 143.234375 17.949219 143.609375 17.292969 C 143.613281 17.289062 144.925781 14.902344 146.839844 15.667969 C 147.769531 16.039062 148.382812 16.53125 148.730469 17.007812 C 148.792969 17.089844 148.839844 17.167969 148.882812 17.242188 C 148.464844 17.109375 148.027344 16.75 148.027344 16.75 C 147.429688 16.285156 146.566406 16.390625 146.101562 16.992188 C 145.925781 17.214844 145.832031 17.476562 145.816406 17.742188 C 145.765625 18.015625 145.355469 19.542969 142.601562 19.402344 C 141.84375 19.363281 141.203125 19.945312 141.164062 20.699219 C 141.125 21.457031 141.707031 22.097656 142.460938 22.136719 C 145.609375 22.296875 147.136719 20.972656 147.875 19.777344 C 148.558594 20.023438 149.402344 20.148438 150.253906 19.839844 C 150.65625 19.691406 150.988281 19.449219 151.238281 19.136719 L 151.328125 19.023438 C 151.691406 18.5 151.820312 17.835938 151.703125 17.125 C 151.609375 16.574219 151.359375 15.972656 150.9375 15.398438 C 150.320312 14.546875 149.300781 13.703125 147.859375 13.125 C 146.402344 12.542969 145.160156 12.703125 144.152344 13.164062 C 146.828125 9.914062 150.597656 5.460938 150.964844 5.734375 C 151.640625 6.230469 149.46875 10.21875 149.460938 10.230469 C 149.097656 10.894531 149.339844 11.726562 150.003906 12.089844 C 150.519531 12.375 151.136719 12.289062 151.558594 11.925781 C 152.121094 11.492188 156.4375 8.230469 157.675781 8.976562 C 158.039062 9.191406 152.53125 13.199219 152.515625 13.210938 C 151.902344 13.652344 151.765625 14.511719 152.210938 15.125 C 152.605469 15.671875 153.332031 15.839844 153.917969 15.554688 C 154.351562 15.386719 156.78125 14.492188 158.09375 15.140625 C 157.671875 15.449219 157.023438 15.808594 156.328125 16.191406 C 154.832031 17.019531 153.175781 17.933594 152.253906 19.21875 C 151.773438 19.898438 148.898438 24.734375 144.933594 31.476562 C 139.40625 40.882812 132.121094 53.363281 126.125 63.65625 C 125.746094 64.3125 125.972656 65.148438 126.625 65.527344 C 127.277344 65.90625 128.117188 65.683594 128.496094 65.03125 C 134.71875 54.34375 142.136719 41.632812 147.292969 32.859375 C 151.210938 26.195312 154.039062 21.429688 154.484375 20.808594 C 155.035156 20.035156 156.40625 19.277344 157.648438 18.59375 C 158.742188 17.988281 159.753906 17.429688 160.390625 16.761719 C 161.410156 15.695312 161.601562 14.605469 160.351562 13.414062 C 159.625 12.71875 158.691406 12.398438 157.726562 12.289062 C 159.628906 10.304688 161.175781 7.886719 159.082031 6.625 C 157.605469 5.742188 155.3125 6.523438 153.378906 7.53125 C 153.722656 5.964844 153.707031 4.347656 152.585938 3.523438 C 149.996094 1.613281 140.097656 13.816406 139.386719 14.695312 L 110.25 53.554688 Z M 110.253906 53.554688 " fill-opacity="1" fill-rule="nonzero"/><path fill="#282c44" d="M 48.421875 89.589844 C 48.972656 89.070312 48.996094 88.203125 48.480469 87.652344 C 47.960938 87.101562 47.09375 87.078125 46.542969 87.59375 C 45.503906 88.570312 44.4375 89.367188 43.363281 89.894531 C 42.453125 90.339844 41.53125 90.59375 40.609375 90.59375 C 37.195312 90.59375 35.097656 82.035156 32.8125 72.695312 C 29.921875 60.898438 26.753906 47.964844 18.765625 46.800781 C 11.625 45.757812 6.707031 45.964844 4.273438 46.660156 C 3.40625 46.90625 2.757812 47.246094 2.34375 47.648438 L 2.316406 47.671875 C 1.589844 48.390625 1.457031 49.210938 1.933594 50.082031 C 2.261719 50.679688 2.964844 51.226562 4.039062 51.664062 L 4.320312 51.765625 C 3.191406 52.226562 2.183594 52.867188 1.84375 53.738281 C 1.355469 55.003906 2.230469 55.847656 3.496094 56.40625 C 2.578125 56.933594 1.824219 57.601562 1.5625 58.425781 C 0.480469 61.828125 10.8125 61.65625 12.886719 61.585938 C 13.472656 61.949219 15.015625 63.238281 15.460938 66.976562 C 16.773438 78 21.082031 97.582031 29.082031 109.554688 C 31.34375 112.941406 33.914062 115.742188 36.804688 117.605469 C 39.796875 119.53125 43.109375 120.457031 46.765625 120.023438 C 49.5625 119.6875 52.539062 118.550781 55.695312 116.4375 C 56.324219 116.019531 56.492188 115.167969 56.070312 114.539062 C 55.652344 113.914062 54.800781 113.746094 54.171875 114.164062 C 51.402344 116.019531 48.828125 117.015625 46.445312 117.296875 C 43.46875 117.652344 40.75 116.886719 38.285156 115.296875 C 35.726562 113.648438 33.417969 111.117188 31.355469 108.03125 C 23.640625 96.488281 19.464844 77.414062 18.183594 66.65625 C 17.503906 60.941406 14.347656 59.234375 13.800781 58.980469 C 13.597656 58.878906 13.371094 58.828125 13.128906 58.839844 C 13.105469 58.839844 4.160156 59.273438 4.167969 59.253906 C 4.492188 58.230469 8.234375 57.554688 8.734375 57.46875 C 9.390625 57.394531 9.914062 56.859375 9.949219 56.179688 C 9.988281 55.421875 9.40625 54.78125 8.652344 54.742188 C 8.640625 54.742188 4.316406 54.929688 4.398438 54.722656 C 4.660156 54.050781 7.949219 53.566406 8.632812 53.472656 L 9.046875 53.464844 C 9.167969 53.96875 9.316406 54.382812 9.480469 54.71875 C 9.9375 55.648438 10.566406 56.136719 11.300781 56.300781 C 12.019531 56.460938 12.71875 56.273438 13.371094 55.867188 C 14.039062 55.449219 14.679688 54.773438 15.226562 54.074219 C 16.03125 54.210938 17.1875 54.21875 18.738281 53.78125 C 19.464844 53.578125 19.890625 52.820312 19.6875 52.089844 C 19.484375 51.363281 18.726562 50.9375 18 51.140625 C 16.175781 51.65625 15.667969 51.496094 15.570312 51.449219 L 15.445312 51.355469 C 14.816406 50.929688 13.964844 51.097656 13.542969 51.726562 C 13.074219 52.421875 12.46875 53.1875 11.9375 53.527344 L 11.933594 53.519531 C 11.59375 52.824219 11.367188 51.425781 11.359375 48.996094 L 11.347656 48.835938 C 13.324219 48.90625 15.671875 49.121094 18.382812 49.515625 C 24.539062 50.410156 27.476562 62.402344 30.15625 73.34375 C 32.710938 83.777344 35.054688 93.339844 40.609375 93.339844 C 41.957031 93.339844 43.28125 92.984375 44.566406 92.351562 C 45.910156 91.691406 47.199219 90.738281 48.421875 89.589844 Z M 5.308594 49.222656 C 6.128906 49.019531 7.238281 48.882812 8.632812 48.828125 L 8.621094 49.007812 C 8.625 49.636719 8.644531 50.214844 8.675781 50.746094 C 7.832031 50.3125 6.730469 49.808594 5.308594 49.222656 Z M 11.886719 53.628906 C 11.851562 53.621094 11.875 53.617188 11.898438 53.605469 C 11.90625 53.621094 11.917969 53.632812 11.886719 53.628906 Z M 11.886719 53.628906 " fill-opacity="1" fill-rule="nonzero"/><path fill="#282c44" d="M 99.054688 42.882812 L 98.992188 42.960938 C 96.988281 45.542969 94.035156 47.257812 90.394531 48.21875 C 86.347656 49.285156 81.457031 49.417969 76.058594 48.769531 C 69.65625 48 63.679688 46.261719 59.195312 43.503906 C 55.367188 41.148438 52.648438 38.046875 51.75 34.179688 L 51.742188 34.132812 C 51.574219 33.402344 51.46875 32.648438 51.433594 31.867188 C 51.398438 31.101562 51.429688 30.296875 51.53125 29.449219 C 51.765625 27.511719 52.300781 25.675781 53.097656 23.976562 C 53.242188 23.667969 53.394531 23.367188 53.554688 23.070312 C 53.828125 22.890625 54.039062 22.613281 54.125 22.273438 C 54.148438 22.1875 54.164062 22.097656 54.167969 22.011719 C 54.808594 20.988281 55.550781 20.019531 56.382812 19.109375 C 56.582031 18.894531 56.78125 18.6875 56.988281 18.480469 L 57.089844 18.378906 C 59.605469 15.886719 62.816406 13.941406 66.457031 12.71875 C 70.332031 11.417969 74.691406 10.929688 79.21875 11.472656 C 84.445312 12.101562 89.132812 14.011719 92.882812 16.773438 C 96.714844 19.59375 99.558594 23.296875 100.976562 27.414062 C 101.429688 28.722656 101.738281 30.070312 101.886719 31.429688 C 102.03125 32.757812 102.027344 34.121094 101.863281 35.496094 C 101.679688 37.007812 101.347656 38.371094 100.878906 39.589844 L 100.878906 39.59375 C 100.410156 40.816406 99.796875 41.910156 99.054688 42.882812 Z M 100.4375 45.496094 C 100.832031 45.6875 101.242188 45.855469 101.660156 46 C 102.433594 46.265625 103.257812 46.457031 104.113281 46.558594 L 104.125 46.5625 C 107.195312 46.925781 110.121094 46.078125 112.371094 44.410156 C 114.648438 42.722656 116.234375 40.203125 116.589844 37.246094 C 116.941406 34.292969 115.996094 31.46875 114.183594 29.289062 C 112.402344 27.152344 109.78125 25.640625 106.742188 25.253906 L 106.605469 25.238281 C 105.804688 25.148438 105.015625 25.136719 104.25 25.199219 C 103.871094 25.234375 103.5 25.285156 103.128906 25.351562 C 101.421875 21.179688 98.417969 17.449219 94.503906 14.566406 C 90.386719 11.535156 85.25 9.433594 79.539062 8.75 C 74.609375 8.160156 69.839844 8.695312 65.589844 10.121094 C 61.886719 11.367188 58.578125 13.292969 55.886719 15.742188 C 55.410156 15.484375 54.90625 15.253906 54.382812 15.0625 C 53.53125 14.746094 52.628906 14.527344 51.6875 14.410156 C 48.613281 14.042969 45.683594 14.890625 43.429688 16.5625 C 41.152344 18.25 39.566406 20.769531 39.210938 23.726562 C 38.859375 26.679688 39.804688 29.503906 41.617188 31.679688 C 43.410156 33.839844 46.0625 35.359375 49.132812 35.726562 L 49.339844 35.75 C 50.609375 39.953125 53.636719 43.304688 57.757812 45.839844 C 62.589844 48.816406 68.957031 50.679688 75.738281 51.492188 C 81.457031 52.179688 86.691406 52.023438 91.089844 50.867188 C 94.902344 49.863281 98.089844 48.105469 100.4375 45.496094 Z M 102.550781 43.402344 L 102.117188 43.242188 C 102.621094 42.417969 103.0625 41.53125 103.429688 40.574219 C 103.988281 39.128906 104.378906 37.546875 104.585938 35.820312 C 104.6875 34.949219 104.734375 34.082031 104.730469 33.222656 C 106.085938 33.632812 107.875 34.820312 107.546875 38.265625 C 107.476562 39.015625 108.027344 39.683594 108.78125 39.753906 C 109.53125 39.824219 110.199219 39.273438 110.269531 38.523438 C 110.875 32.167969 106.6875 30.703125 104.511719 30.371094 C 104.390625 29.566406 104.226562 28.769531 104.019531 27.988281 L 104.476562 27.9375 C 105.082031 27.886719 105.703125 27.894531 106.332031 27.96875 L 106.347656 27.972656 C 108.703125 28.253906 110.722656 29.40625 112.085938 31.039062 C 113.414062 32.636719 114.113281 34.699219 113.875 36.855469 L 113.859375 36.984375 C 113.582031 39.132812 112.414062 40.972656 110.742188 42.210938 C 109.050781 43.46875 106.835938 44.109375 104.5 43.84375 L 104.375 43.828125 C 103.742188 43.75 103.128906 43.605469 102.550781 43.40625 Z M 51.953125 20.402344 C 49.773438 20.203125 45.300781 20.597656 44.382812 26.960938 C 44.277344 27.710938 44.796875 28.40625 45.546875 28.511719 C 46.296875 28.617188 46.988281 28.097656 47.097656 27.347656 C 47.527344 24.367188 49.117188 23.429688 50.453125 23.1875 C 49.621094 25.054688 49.058594 27.042969 48.808594 29.128906 C 48.691406 30.101562 48.65625 31.054688 48.699219 31.984375 C 48.714844 32.292969 48.738281 32.59375 48.769531 32.894531 C 46.707031 32.488281 44.945312 31.40625 43.71875 29.933594 C 42.375 28.320312 41.675781 26.230469 41.9375 24.050781 C 42.195312 21.875 43.371094 20.011719 45.058594 18.761719 C 46.765625 17.496094 49.003906 16.855469 51.363281 17.136719 C 52.089844 17.222656 52.785156 17.394531 53.4375 17.636719 L 53.875 17.8125 C 53.171875 18.632812 52.527344 19.496094 51.949219 20.402344 Z M 51.953125 20.402344 " fill-opacity="1" fill-rule="nonzero"/><path fill="#282c44" d="M 89.265625 38.152344 C 89.738281 37.566406 89.640625 36.703125 89.050781 36.234375 C 88.460938 35.761719 87.601562 35.859375 87.132812 36.449219 C 87.125 36.460938 83.765625 40.71875 75.984375 39.851562 C 68.269531 38.992188 65.792969 32.765625 65.785156 32.75 C 65.496094 32.050781 64.695312 31.71875 63.996094 32.011719 C 63.296875 32.300781 62.964844 33.101562 63.253906 33.800781 C 63.265625 33.824219 66.335938 41.535156 75.683594 42.574219 C 84.960938 43.609375 89.253906 38.167969 89.265625 38.152344 Z M 80.425781 23.058594 C 80.871094 22.449219 80.738281 21.589844 80.128906 21.144531 C 79.519531 20.695312 78.664062 20.828125 78.214844 21.4375 C 78.203125 21.453125 74.058594 26.988281 76.820312 30.941406 C 77.253906 31.558594 78.105469 31.710938 78.722656 31.277344 C 79.339844 30.847656 79.492188 29.992188 79.058594 29.375 C 77.441406 27.058594 80.414062 23.070312 80.425781 23.058594 Z M 80.425781 23.058594 " fill-opacity="1" fill-rule="nonzero"/><path fill="#282c44" d="M 91.542969 40.347656 C 92.289062 40.464844 92.992188 39.957031 93.109375 39.210938 C 93.226562 38.464844 92.71875 37.761719 91.972656 37.644531 C 91.964844 37.644531 88.832031 37.210938 88.429688 35.253906 C 88.277344 34.515625 87.554688 34.039062 86.816406 34.1875 C 86.078125 34.339844 85.597656 35.0625 85.75 35.800781 C 86.546875 39.691406 91.53125 40.34375 91.542969 40.347656 Z M 91.542969 40.347656 " fill-opacity="1" fill-rule="nonzero"/><path fill="#282c44" d="M 67.386719 32.792969 C 67.78125 32.144531 67.582031 31.300781 66.933594 30.902344 C 66.289062 30.507812 65.445312 30.710938 65.046875 31.355469 C 65.046875 31.359375 64.292969 32.644531 61.957031 32.089844 C 61.21875 31.914062 60.480469 32.371094 60.304688 33.105469 C 60.132812 33.84375 60.589844 34.582031 61.324219 34.757812 C 65.617188 35.78125 67.378906 32.800781 67.386719 32.792969 Z M 67.386719 32.792969 " fill-opacity="1" fill-rule="nonzero"/><path fill="#282c44" d="M 87.585938 23.253906 C 86.492188 23.125 85.425781 24.480469 85.210938 26.285156 C 84.992188 28.089844 85.707031 29.664062 86.800781 29.792969 C 87.898438 29.925781 88.960938 28.570312 89.175781 26.761719 C 89.394531 24.957031 88.683594 23.386719 87.585938 23.253906 Z M 87.585938 23.253906 " fill-opacity="1" fill-rule="evenodd"/><path fill="#282c44" d="M 68.65625 20.507812 C 67.558594 20.378906 66.496094 21.734375 66.28125 23.539062 C 66.0625 25.347656 66.777344 26.917969 67.871094 27.046875 C 68.96875 27.179688 70.03125 25.824219 70.246094 24.015625 C 70.464844 22.210938 69.75 20.640625 68.65625 20.507812 Z M 68.65625 20.507812 " fill-opacity="1" fill-rule="evenodd"/><path fill="#282c44" d="M 101.484375 23.742188 C 101.449219 23.742188 89.023438 24.339844 84.347656 13.683594 L 83.707031 12.21875 L 82.359375 13.070312 C 82.332031 13.089844 73.027344 19.238281 61.058594 12.835938 L 59.769531 15.25 C 70.378906 20.921875 79.238281 17.71875 82.492188 16.125 C 88.332031 27.113281 101.539062 26.480469 101.578125 26.476562 Z M 101.484375 23.742188 " fill-opacity="1" fill-rule="nonzero"/></g></g></g><path fill="#ffe0e0" d="M 340.925781 52.722656 C 340.914062 52.757812 337.527344 65.203125 321.414062 55.226562 C 282.65625 31.230469 270.164062 43.078125 251.351562 60.917969 C 236.65625 74.847656 222.648438 21.183594 172.128906 51.777344 L 187.144531 76.578125 C 201.332031 67.988281 213.480469 76.191406 223.238281 82.785156 C 238.183594 92.882812 252.488281 110.941406 268.210938 96.644531 C 269.652344 95.335938 271.582031 93.507812 273.433594 91.753906 C 282.480469 83.175781 288.484375 77.480469 308.230469 89.703125 C 357.296875 120.078125 368.871094 60.828125 368.910156 60.6875 Z M 340.925781 52.722656 " fill-opacity="1" fill-rule="nonzero"/><path fill="#282c44" d="M 366.210938 60.25 C 365.859375 60.855469 365.078125 61.058594 364.476562 60.703125 C 363.871094 60.347656 363.667969 59.570312 364.023438 58.964844 C 364.394531 58.332031 364.773438 57.671875 365.148438 57.003906 C 366.304688 54.9375 367.371094 52.824219 367.976562 51.125 C 368.390625 49.972656 368.644531 49.191406 368.601562 49.148438 L 368.570312 49.132812 C 366.902344 48.269531 365.308594 51.78125 365.304688 51.789062 C 365.007812 52.425781 364.253906 52.699219 363.617188 52.402344 C 363.117188 52.167969 362.839844 51.644531 362.890625 51.125 C 362.894531 51.101562 363.734375 43.480469 362.667969 42.957031 C 362.015625 42.640625 359.402344 49.136719 359.394531 49.152344 C 359.132812 49.804688 358.394531 50.121094 357.742188 49.859375 C 357.21875 49.652344 356.910156 49.132812 356.949219 48.597656 C 356.949219 48.574219 357.503906 40.578125 355.640625 39.960938 C 354.136719 39.464844 351.859375 47.878906 351.851562 47.902344 C 351.667969 48.578125 350.964844 48.976562 350.289062 48.789062 C 349.761719 48.644531 349.40625 48.183594 349.363281 47.667969 C 349.359375 47.65625 349.046875 43.539062 346.894531 43.265625 L 346.886719 43.265625 C 346.863281 43.304688 346.707031 43.769531 346.476562 44.472656 C 346.085938 45.679688 345.808594 47.371094 345.609375 49.164062 C 345.441406 50.679688 345.332031 52.242188 345.265625 53.65625 C 345.230469 54.359375 344.636719 54.898438 343.933594 54.867188 C 343.234375 54.835938 342.691406 54.238281 342.726562 53.539062 C 342.796875 52.054688 342.910156 50.429688 343.082031 48.882812 C 343.296875 46.9375 343.609375 45.078125 344.058594 43.6875 C 344.648438 41.875 345.554688 40.714844 346.902344 40.722656 C 346.988281 40.722656 347.0625 40.726562 347.144531 40.734375 C 348.894531 40.929688 350.007812 42.078125 350.714844 43.371094 C 351.949219 40.332031 353.976562 36.730469 356.4375 37.542969 C 358.320312 38.167969 359.082031 40.984375 359.375 43.636719 C 360.648438 41.652344 362.269531 39.929688 363.785156 40.667969 C 365.289062 41.402344 365.632812 44.578125 365.636719 47.28125 C 366.734375 46.453125 368.132812 46.023438 369.75 46.882812 L 369.890625 46.957031 C 371.257812 47.769531 371.214844 49.636719 370.378906 51.980469 C 369.730469 53.792969 368.59375 56.046875 367.371094 58.238281 C 366.992188 58.910156 366.601562 59.589844 366.210938 60.25 Z M 366.210938 60.25 " fill-opacity="1" fill-rule="nonzero"/><path fill="#282c44" d="M 183.152344 72.085938 C 183.652344 71.59375 184.457031 71.601562 184.949219 72.101562 C 185.441406 72.601562 185.433594 73.40625 184.933594 73.898438 C 184.382812 74.441406 183.816406 74.984375 183.261719 75.507812 C 181.4375 77.21875 179.527344 78.863281 177.910156 79.9375 C 175.835938 81.316406 174.035156 81.808594 172.917969 80.675781 L 172.886719 80.644531 C 171.585938 79.253906 171.664062 77.757812 172.21875 76.460938 C 169.585938 77.109375 166.414062 77.542969 165.34375 76.265625 C 164.257812 74.96875 165.527344 72.988281 167.140625 71.277344 C 164.503906 71.632812 161.601562 71.566406 160.539062 69.886719 C 159.160156 67.703125 162.171875 64.859375 164.824219 62.925781 C 163.394531 62.554688 162.003906 61.753906 161.390625 60.101562 L 161.351562 59.972656 C 160.941406 58.621094 161.855469 57.429688 163.515625 56.394531 C 164.753906 55.621094 166.488281 54.871094 168.324219 54.191406 C 169.796875 53.648438 171.34375 53.148438 172.753906 52.722656 C 173.425781 52.523438 174.132812 52.90625 174.335938 53.578125 C 174.535156 54.253906 174.152344 54.960938 173.480469 55.164062 C 172.113281 55.574219 170.617188 56.054688 169.199219 56.582031 C 167.507812 57.203125 165.9375 57.882812 164.859375 58.554688 C 164.222656 58.949219 163.808594 59.214844 163.789062 59.246094 C 164.570312 61.285156 168.632812 60.585938 168.640625 60.582031 C 169.160156 60.496094 169.703125 60.734375 169.972656 61.21875 C 170.3125 61.832031 170.089844 62.605469 169.476562 62.945312 C 169.457031 62.957031 161.839844 67.183594 162.691406 68.535156 C 163.730469 70.183594 171.371094 67.722656 171.390625 67.714844 C 171.898438 67.558594 172.46875 67.726562 172.800781 68.179688 C 173.214844 68.746094 173.09375 69.542969 172.527344 69.957031 C 172.511719 69.96875 166.84375 74.09375 167.296875 74.632812 C 168.039062 75.519531 174.667969 73.097656 175.226562 72.894531 C 175.738281 72.6875 176.34375 72.832031 176.703125 73.289062 C 177.136719 73.839844 177.042969 74.640625 176.488281 75.074219 C 176.480469 75.082031 173.421875 77.484375 174.734375 78.898438 C 174.800781 78.921875 175.496094 78.488281 176.507812 77.816406 C 177.992188 76.828125 179.785156 75.28125 181.519531 73.65625 C 182.085938 73.121094 182.632812 72.59375 183.152344 72.085938 Z M 183.152344 72.085938 " fill-opacity="1" fill-rule="nonzero"/><path fill="#282c44" d="M 286.277344 42.558594 L 286.347656 42.441406 C 286.910156 41.480469 287.351562 40.410156 287.648438 39.226562 C 287.949219 38.046875 288.105469 36.75 288.105469 35.339844 C 288.105469 34.183594 287.988281 33.054688 287.761719 31.964844 L 287.679688 31.589844 C 287.390625 30.347656 286.957031 29.140625 286.398438 27.988281 C 284.636719 24.355469 281.601562 21.253906 277.757812 19.078125 C 273.996094 16.953125 269.464844 15.710938 264.574219 15.710938 C 260.339844 15.710938 256.375 16.640625 252.945312 18.269531 C 249.710938 19.804688 246.957031 21.964844 244.914062 24.546875 L 244.871094 24.597656 C 244.699219 24.820312 244.527344 25.042969 244.367188 25.269531 C 243.703125 26.195312 243.125 27.171875 242.648438 28.191406 C 242.652344 28.277344 242.648438 28.363281 242.636719 28.453125 C 242.589844 28.769531 242.425781 29.042969 242.199219 29.234375 C 242.085938 29.527344 241.980469 29.824219 241.878906 30.121094 C 241.332031 31.78125 241.039062 33.53125 241.039062 35.339844 C 241.039062 36.132812 241.101562 36.875 241.214844 37.574219 C 241.335938 38.285156 241.515625 38.972656 241.75 39.632812 C 243 43.121094 245.855469 45.691406 249.65625 47.445312 C 254.089844 49.488281 259.792969 50.429688 265.789062 50.429688 C 270.832031 50.429688 275.324219 49.761719 278.9375 48.332031 C 282.1875 47.046875 284.71875 45.148438 286.277344 42.558594 Z M 289.199219 42.453125 L 289.617188 42.554688 C 290.1875 42.675781 290.785156 42.742188 291.40625 42.742188 C 293.609375 42.742188 295.601562 41.902344 297.039062 40.546875 C 298.453125 39.207031 299.328125 37.363281 299.328125 35.324219 C 299.328125 33.289062 298.453125 31.445312 297.039062 30.105469 C 295.601562 28.75 293.609375 27.910156 291.40625 27.910156 C 290.800781 27.910156 290.226562 27.96875 289.683594 28.082031 L 289.261719 28.179688 C 289.542969 28.878906 289.78125 29.59375 289.980469 30.320312 C 292.03125 30.390625 296.050781 31.28125 296.191406 37.203125 C 296.207031 37.902344 295.652344 38.484375 294.953125 38.5 C 294.25 38.515625 293.667969 37.960938 293.652344 37.261719 C 293.578125 34.050781 291.792969 33.15625 290.5 32.929688 C 290.601562 33.722656 290.65625 34.527344 290.65625 35.339844 C 290.65625 36.957031 290.472656 38.457031 290.117188 39.84375 C 289.886719 40.761719 289.578125 41.628906 289.199219 42.453125 Z M 289.078125 45.042969 C 288.679688 44.957031 288.285156 44.847656 287.898438 44.714844 C 286.023438 47.382812 283.277344 49.355469 279.875 50.703125 C 275.953125 52.253906 271.140625 52.976562 265.789062 52.976562 C 259.453125 52.976562 253.378906 51.964844 248.589844 49.753906 C 244.503906 47.871094 241.34375 45.117188 239.710938 41.386719 L 239.519531 41.390625 C 236.644531 41.390625 234.035156 40.285156 232.144531 38.496094 C 230.230469 36.6875 229.046875 34.1875 229.046875 31.425781 C 229.046875 28.664062 230.230469 26.164062 232.144531 24.355469 C 234.035156 22.566406 236.644531 21.460938 239.519531 21.460938 C 240.386719 21.460938 241.242188 21.566406 242.074219 21.765625 C 242.578125 21.886719 243.066406 22.039062 243.535156 22.226562 C 245.746094 19.667969 248.585938 17.527344 251.859375 15.96875 C 255.625 14.179688 259.960938 13.160156 264.574219 13.160156 C 269.90625 13.160156 274.875 14.527344 279.011719 16.867188 C 282.9375 19.089844 286.117188 22.199219 288.152344 25.855469 C 288.46875 25.757812 288.789062 25.675781 289.113281 25.605469 L 289.167969 25.59375 C 289.898438 25.441406 290.648438 25.359375 291.40625 25.359375 C 294.28125 25.359375 296.886719 26.46875 298.78125 28.253906 C 300.695312 30.0625 301.878906 32.5625 301.878906 35.324219 C 301.878906 38.089844 300.695312 40.589844 298.78125 42.398438 C 296.886719 44.183594 294.28125 45.292969 291.40625 45.292969 C 290.609375 45.292969 289.832031 45.203125 289.078125 45.042969 Z M 239.347656 29.6875 C 238.140625 30.058594 236.78125 31.097656 236.714844 33.890625 C 236.695312 34.59375 236.117188 35.148438 235.414062 35.132812 C 234.714844 35.117188 234.160156 34.535156 234.175781 33.832031 C 234.316406 27.878906 238.382812 27.011719 240.421875 26.953125 C 240.851562 26.054688 241.351562 25.1875 241.914062 24.347656 L 241.488281 24.234375 C 240.875 24.089844 240.214844 24.011719 239.519531 24.011719 C 237.3125 24.011719 235.324219 24.851562 233.886719 26.207031 C 232.472656 27.542969 231.59375 29.390625 231.59375 31.425781 C 231.59375 33.460938 232.472656 35.308594 233.886719 36.644531 C 235.179688 37.867188 236.921875 38.667969 238.867188 38.816406 C 238.808594 38.546875 238.753906 38.269531 238.707031 37.992188 C 238.566406 37.132812 238.488281 36.25 238.488281 35.339844 C 238.488281 33.386719 238.789062 31.492188 239.347656 29.6875 Z M 239.347656 29.6875 " fill-opacity="1" fill-rule="nonzero"/><path fill="#282c44" d="M 274.640625 37.835938 C 275.015625 37.242188 275.800781 37.070312 276.390625 37.445312 C 276.984375 37.824219 277.15625 38.609375 276.78125 39.199219 C 276.769531 39.214844 273.421875 44.683594 264.753906 44.757812 C 256.019531 44.832031 252.335938 38.066406 252.324219 38.046875 C 251.980469 37.4375 252.199219 36.660156 252.8125 36.316406 C 253.425781 35.972656 254.199219 36.191406 254.542969 36.804688 C 254.554688 36.820312 257.527344 42.28125 264.734375 42.21875 C 272 42.15625 274.632812 37.847656 274.640625 37.835938 Z M 264.75 25.003906 C 265.09375 24.390625 265.867188 24.171875 266.480469 24.515625 C 267.09375 24.859375 267.3125 25.636719 266.96875 26.25 C 266.964844 26.261719 264.660156 30.269531 266.40625 32.222656 C 266.875 32.746094 266.832031 33.546875 266.308594 34.015625 C 265.785156 34.480469 264.984375 34.4375 264.515625 33.914062 C 261.53125 30.578125 264.742188 25.019531 264.75 25.003906 Z M 264.75 25.003906 " fill-opacity="1" fill-rule="nonzero"/><path fill="#282c44" d="M 279.230469 38.414062 C 279.929688 38.441406 280.476562 39.035156 280.449219 39.734375 C 280.421875 40.433594 279.828125 40.980469 279.128906 40.953125 C 279.117188 40.953125 274.453125 40.902344 273.285156 37.402344 C 273.066406 36.738281 273.429688 36.019531 274.09375 35.800781 C 274.757812 35.582031 275.476562 35.941406 275.695312 36.609375 C 276.28125 38.363281 279.222656 38.414062 279.230469 38.414062 Z M 279.230469 38.414062 " fill-opacity="1" fill-rule="nonzero"/><path fill="#282c44" d="M 253.695312 35.632812 C 253.972656 34.988281 254.71875 34.6875 255.363281 34.960938 C 256.011719 35.234375 256.308594 35.980469 256.035156 36.628906 C 256.03125 36.636719 254.726562 39.613281 250.652344 39.144531 C 249.953125 39.066406 249.453125 38.433594 249.53125 37.738281 C 249.613281 37.039062 250.242188 36.539062 250.941406 36.617188 C 253.148438 36.871094 253.695312 35.636719 253.695312 35.632812 Z M 253.695312 35.632812 " fill-opacity="1" fill-rule="nonzero"/><path fill="#282c44" d="M 273.59375 25.640625 C 272.566406 25.640625 271.738281 27.007812 271.738281 28.695312 C 271.738281 30.382812 272.566406 31.753906 273.59375 31.753906 C 274.617188 31.753906 275.445312 30.382812 275.445312 28.695312 C 275.445312 27.007812 274.617188 25.640625 273.59375 25.640625 Z M 273.59375 25.640625 " fill-opacity="1" fill-rule="evenodd"/><path fill="#282c44" d="M 255.835938 25.203125 C 254.8125 25.203125 253.980469 26.570312 253.980469 28.257812 C 253.980469 29.949219 254.8125 31.316406 255.835938 31.316406 C 256.859375 31.316406 257.691406 29.949219 257.691406 28.257812 C 257.691406 26.570312 256.859375 25.203125 255.835938 25.203125 Z M 255.835938 25.203125 " fill-opacity="1" fill-rule="evenodd"/><path fill="#282c44" d="M 294.863281 83.5625 C 294.984375 82.867188 295.644531 82.40625 296.335938 82.527344 C 297.03125 82.648438 297.492188 83.304688 297.371094 84 C 297.363281 84.046875 291.222656 119.3125 300.515625 147.304688 C 305.101562 161.121094 313.472656 173.148438 328.261719 178.160156 C 328.925781 178.382812 329.28125 179.105469 329.054688 179.773438 C 329.035156 179.832031 329.011719 179.886719 328.984375 179.941406 L 316.289062 208.375 C 316.003906 209.011719 315.253906 209.300781 314.613281 209.015625 C 314.234375 208.847656 313.980469 208.515625 313.894531 208.144531 L 311.710938 198.886719 C 305.882812 195.101562 244.789062 153.449219 274.929688 88.730469 C 275.226562 88.09375 275.984375 87.816406 276.621094 88.113281 C 277.257812 88.410156 277.535156 89.167969 277.238281 89.808594 C 247.09375 154.535156 311.210938 195.574219 313.449219 196.984375 C 313.753906 197.152344 313.988281 197.445312 314.070312 197.808594 L 315.507812 203.898438 L 326.132812 180.101562 C 311.265625 174.539062 302.785156 162.195312 298.105469 148.101562 C 288.609375 119.488281 294.855469 83.609375 294.863281 83.5625 Z M 294.863281 83.5625 " fill-opacity="1" fill-rule="nonzero"/><g clip-path="url(#3a893cd6fb)"><path fill="#282c44" d="M 247.984375 100.449219 C 248.074219 99.753906 248.714844 99.265625 249.410156 99.355469 C 250.101562 99.445312 250.59375 100.082031 250.503906 100.777344 C 248.960938 112.589844 247.875 129.726562 251.183594 145.539062 C 254.453125 161.15625 262.023438 175.488281 277.742188 181.988281 C 278.390625 182.253906 278.703125 182.996094 278.433594 183.644531 L 278.382812 183.753906 L 263.824219 211.351562 C 263.5 211.972656 262.730469 212.210938 262.109375 211.882812 C 261.742188 211.691406 261.511719 211.347656 261.445312 210.96875 L 259.878906 201.585938 C 254.316406 197.433594 196.070312 151.867188 230.390625 89.257812 C 230.726562 88.640625 231.5 88.417969 232.117188 88.753906 C 232.734375 89.09375 232.957031 89.867188 232.621094 90.480469 C 198.355469 152.988281 259.378906 198.09375 261.71875 199.792969 C 262.019531 199.980469 262.238281 200.289062 262.300781 200.664062 L 263.332031 206.835938 L 275.496094 183.78125 C 259.699219 176.660156 252.027344 161.988281 248.695312 146.058594 C 245.316406 129.902344 246.414062 112.460938 247.984375 100.449219 Z M 247.984375 100.449219 " fill-opacity="1" fill-rule="nonzero"/></g><path fill="#282c44" d="M 221.195312 133.164062 L 248.332031 133.625 L 248.292969 136.160156 L 221.152344 135.703125 Z M 221.195312 133.164062 " fill-opacity="1" fill-rule="nonzero"/><path fill="#282c44" d="M 268.191406 131.945312 L 294.554688 124.902344 L 295.210938 127.363281 L 268.851562 134.40625 Z M 268.191406 131.945312 " fill-opacity="1" fill-rule="nonzero"/><path fill="#282c44" d="M 238.261719 22.894531 C 238.253906 22.835938 235.496094 2.21875 251.21875 5.652344 C 257.402344 7.003906 260.242188 5.320312 262.515625 3.976562 C 265.640625 2.125 267.917969 0.777344 273.710938 5.335938 C 276.789062 7.757812 280.25 8.320312 283.355469 8.824219 C 290.332031 9.953125 295.773438 10.835938 294.328125 26.886719 L 291.796875 26.667969 C 293.03125 12.964844 288.617188 12.246094 282.957031 11.332031 C 279.535156 10.777344 275.722656 10.160156 272.136719 7.335938 C 267.714844 3.855469 266.070312 4.828125 263.8125 6.164062 C 261.152344 7.738281 257.835938 9.703125 250.679688 8.140625 C 238.5 5.480469 240.773438 22.527344 240.777344 22.578125 Z M 238.261719 22.894531 " fill-opacity="1" fill-rule="nonzero"/></g></g></svg>