<svg xmlns="http://www.w3.org/2000/svg" xmlns:xlink="http://www.w3.org/1999/xlink" width="1920" zoomAndPan="magnify" viewBox="0 0 1440 809.999993" height="1080" preserveAspectRatio="xMidYMid meet" version="1.0"><defs><clipPath id="ddef881bae"><path d="M 39 490 L 284 490 L 284 777.695312 L 39 777.695312 Z M 39 490 " clip-rule="nonzero"/></clipPath><clipPath id="dc98ee7720"><path d="M 277 647 L 453 647 L 453 777.695312 L 277 777.695312 Z M 277 647 " clip-rule="nonzero"/></clipPath></defs><path fill="#fc7837" d="M 113.5625 643.664062 L 169.433594 625.363281 C 163.515625 602.972656 192.839844 593.179688 201.390625 614.898438 L 257.265625 596.597656 C 218.820312 498.949219 86.960938 542.980469 113.558594 643.664062 Z M 113.5625 643.664062 " fill-opacity="1" fill-rule="evenodd"/><g clip-path="url(#ddef881bae)"><path fill="#282c44" d="M 201.617188 545.417969 C 200.761719 545.800781 199.761719 545.417969 199.378906 544.5625 C 198.996094 543.707031 199.382812 542.703125 200.234375 542.320312 C 210.507812 537.710938 223.550781 531.308594 235.613281 523.773438 C 247.527344 516.332031 258.441406 507.8125 264.632812 498.90625 C 264.96875 498.3125 270.042969 489.445312 273.140625 490.398438 C 275.761719 491.203125 274.453125 496.628906 273.5 499.632812 C 275.101562 500.066406 277.046875 501.089844 277.566406 503.527344 C 279.738281 503.449219 282.96875 504.078125 283.648438 508.320312 C 284.097656 511.117188 280.210938 523.886719 267.867188 537.949219 C 260.644531 546.179688 250.503906 554.984375 236.621094 562.679688 C 235.804688 563.132812 234.773438 562.839844 234.316406 562.019531 C 233.863281 561.203125 234.15625 560.167969 234.976562 559.714844 C 248.472656 552.230469 258.316406 543.691406 265.316406 535.714844 C 273.316406 526.601562 277.585938 518.398438 279.34375 513.414062 C 277.988281 514.453125 276.4375 514.96875 274.953125 513.953125 C 273.753906 513.136719 273.222656 512.039062 273.035156 510.945312 C 272.109375 512.398438 270.246094 512.601562 268.917969 512.53125 C 268.007812 513.953125 265.761719 515.621094 260.253906 514.914062 C 259.324219 514.796875 258.667969 513.949219 258.785156 513.019531 C 258.902344 512.089844 259.75 511.433594 260.679688 511.550781 C 266.113281 512.246094 266.152344 510.59375 266.152344 510.589844 C 266.160156 510.476562 266.175781 510.367188 266.207031 510.257812 C 266.445312 509.351562 267.371094 508.808594 268.277344 509.046875 C 268.28125 509.046875 269.789062 509.433594 270.128906 509.113281 C 270.058594 508.972656 270.007812 508.820312 269.980469 508.660156 C 268.847656 507.804688 263.691406 506.777344 263.675781 506.773438 C 263.394531 506.71875 263.144531 506.597656 262.933594 506.429688 C 256.335938 513.699219 247.183594 520.550781 237.40625 526.660156 C 225.222656 534.269531 212.019531 540.75 201.617188 545.417969 Z M 267.484375 500.746094 C 266.808594 501.726562 266.078125 502.699219 265.296875 503.667969 C 266.128906 503.882812 267.390625 504.246094 268.679688 504.753906 C 268.753906 502.898438 269.378906 501.101562 269.582031 500.554688 L 269.628906 500.421875 C 269.636719 500.402344 272.203125 493.660156 272.140625 493.644531 C 271.625 493.484375 267.578125 500.605469 267.566406 500.625 Z M 274.289062 505.21875 C 274.394531 503.691406 273.277344 503.101562 272.363281 502.871094 C 272.027344 503.96875 271.691406 505.503906 272.210938 506.082031 C 272.359375 506.253906 272.472656 506.445312 272.542969 506.644531 C 274.347656 506.488281 274.277344 505.570312 274.277344 505.570312 C 274.269531 505.449219 274.273438 505.332031 274.289062 505.21875 Z M 279.835938 507.746094 C 279.226562 506.996094 278.199219 506.890625 277.425781 506.941406 C 277.273438 507.398438 277.023438 507.902344 276.621094 508.367188 C 276.375 509.054688 275.980469 510.539062 276.867188 511.144531 C 277.453125 511.546875 279.042969 509.070312 279.835938 507.746094 Z M 206.089844 614.9375 C 205.164062 614.777344 204.546875 613.894531 204.707031 612.96875 C 204.867188 612.042969 205.75 611.425781 206.675781 611.585938 C 235.929688 616.761719 241.667969 634.222656 238.101562 654.398438 C 235.171875 670.972656 225.800781 689.320312 218.34375 703.917969 C 217.203125 706.15625 216.105469 708.296875 215.027344 710.457031 L 248.339844 723.214844 L 241.964844 713.816406 C 241.558594 713.214844 241.589844 712.449219 241.984375 711.890625 C 242.175781 711.609375 310.988281 615.339844 232.238281 606.421875 C 231.304688 606.320312 230.632812 605.480469 230.734375 604.546875 C 230.835938 603.613281 231.679688 602.941406 232.609375 603.042969 C 312.441406 612.085938 252.496094 702.617188 245.429688 712.878906 L 254.097656 725.664062 C 254.464844 726.121094 254.585938 726.75 254.363281 727.335938 C 254.03125 728.214844 253.046875 728.65625 252.171875 728.320312 L 212.070312 712.96875 L 211.921875 712.902344 C 211.082031 712.484375 210.738281 711.46875 211.152344 710.625 C 212.332031 708.234375 213.789062 705.382812 215.324219 702.375 C 222.671875 687.992188 231.90625 669.917969 234.753906 653.8125 C 237.988281 635.503906 232.75 619.652344 206.089844 614.9375 Z M 160.855469 627.351562 C 161.003906 626.425781 161.878906 625.800781 162.800781 625.949219 C 163.726562 626.101562 164.355469 626.972656 164.203125 627.898438 L 139.964844 776.125 C 139.828125 776.957031 139.105469 777.550781 138.289062 777.550781 L 91.320312 777.554688 C 90.378906 777.554688 89.617188 776.792969 89.617188 775.851562 C 89.617188 775.292969 89.886719 774.792969 90.304688 774.484375 L 108.285156 758.734375 L 135.488281 635.574219 C 135.6875 634.660156 136.59375 634.085938 137.507812 634.285156 C 138.421875 634.488281 139 635.394531 138.796875 636.308594 L 111.488281 759.953125 C 111.421875 760.316406 111.234375 760.660156 110.9375 760.921875 L 95.835938 774.148438 L 136.847656 774.148438 Z M 129.644531 564.097656 C 130.582031 564.054688 131.371094 564.785156 131.414062 565.71875 C 131.453125 566.65625 130.726562 567.449219 129.792969 567.488281 C 118.425781 568.015625 103.734375 568.1875 89.398438 566.890625 C 77.917969 565.851562 66.660156 563.863281 57.496094 560.355469 C 57.386719 560.597656 57.21875 560.816406 56.996094 560.992188 C 56.980469 561.003906 52.851562 564.265625 52.214844 565.527344 C 52.261719 565.679688 52.285156 565.835938 52.285156 565.988281 C 52.738281 566.070312 53.972656 565.054688 53.972656 565.050781 C 54.703125 564.46875 55.769531 564.585938 56.355469 565.316406 L 56.484375 565.503906 C 56.488281 565.507812 57.269531 566.992188 61.816406 563.910156 C 62.589844 563.386719 63.644531 563.589844 64.167969 564.363281 C 64.691406 565.140625 64.488281 566.195312 63.714844 566.71875 C 59.128906 569.824219 56.382812 569.367188 54.925781 568.515625 C 53.792969 569.183594 52.027344 569.878906 50.515625 568.960938 C 50.84375 570.015625 50.859375 571.230469 50.164062 572.492188 C 49.390625 573.898438 48.027344 574.242188 46.558594 574.082031 C 51.109375 577.789062 59.941406 583.21875 72.179688 587.828125 C 83.191406 591.96875 96.871094 595.308594 112.566406 595.90625 C 113.5 595.9375 114.234375 596.726562 114.203125 597.660156 C 114.167969 598.597656 113.382812 599.332031 112.445312 599.296875 C 96.328125 598.683594 82.28125 595.257812 70.984375 591.003906 C 52.210938 583.941406 40.773438 574.25 39.859375 571.386719 C 39.761719 571.074219 39.6875 570.773438 39.632812 570.480469 C 39.609375 570.382812 39.59375 570.28125 39.585938 570.179688 C 39.167969 567.039062 41.425781 565.292969 43.148438 564.433594 C 42.480469 561.996094 43.773438 560.175781 45.03125 559.054688 C 42.835938 556.777344 39.242188 552.5 41.160156 550.652344 C 43.503906 548.394531 51.886719 553.941406 52.5625 554.394531 C 62.109375 559.5625 75.703125 562.246094 89.703125 563.511719 C 103.835938 564.789062 118.382812 564.617188 129.644531 564.097656 Z M 54.140625 558.957031 C 53.007812 558.445312 51.917969 557.90625 50.871094 557.335938 L 50.757812 557.269531 C 50.738281 557.257812 43.871094 552.753906 43.511719 553.101562 C 43.394531 553.210938 47.984375 557.289062 48.695312 557.917969 L 48.796875 558 C 48.804688 558.007812 50.539062 559.507812 51.617188 561.4375 C 52.539062 560.40625 53.496094 559.519531 54.136719 558.957031 Z M 47.460938 561.433594 C 46.746094 562.050781 46.015625 563.089844 46.835938 564.429688 C 46.890625 564.515625 46.941406 564.609375 46.984375 564.707031 C 46.984375 564.707031 47.332031 565.558594 49.011719 564.886719 C 48.984375 564.671875 48.996094 564.453125 49.054688 564.234375 C 49.253906 563.492188 48.257812 562.265625 47.460938 561.433594 Z M 44.835938 567.394531 C 44.132812 567.726562 43.28125 568.300781 43.042969 569.175781 C 44.363281 570.007812 46.851562 571.460938 47.1875 570.855469 C 47.710938 569.902344 46.679688 568.757812 46.160156 568.265625 C 45.613281 568.039062 45.175781 567.722656 44.835938 567.394531 Z M 44.835938 567.394531 " fill-opacity="1" fill-rule="nonzero"/></g><path fill="#282c44" d="M 132.683594 528.53125 L 132.777344 528.6875 C 134.859375 532.144531 138.238281 534.683594 142.578125 536.398438 C 147.40625 538.308594 153.402344 539.199219 160.140625 539.199219 C 168.148438 539.199219 175.761719 537.945312 181.683594 535.214844 C 186.757812 532.871094 190.570312 529.4375 192.238281 524.777344 C 192.554688 523.894531 192.796875 522.976562 192.953125 522.027344 C 193.109375 521.09375 193.191406 520.101562 193.191406 519.042969 C 193.191406 516.628906 192.800781 514.289062 192.066406 512.074219 C 191.9375 511.671875 191.792969 511.277344 191.640625 510.886719 C 191.335938 510.628906 191.121094 510.265625 191.058594 509.84375 C 191.039062 509.726562 191.035156 509.609375 191.042969 509.496094 C 190.402344 508.132812 189.632812 506.828125 188.746094 505.59375 C 188.53125 505.289062 188.304688 504.992188 188.074219 504.695312 L 188.015625 504.625 C 185.289062 501.175781 181.609375 498.292969 177.289062 496.242188 C 172.710938 494.0625 167.414062 492.820312 161.765625 492.820312 C 155.234375 492.820312 149.175781 494.480469 144.160156 497.320312 C 139.023438 500.230469 134.972656 504.367188 132.617188 509.226562 C 131.871094 510.765625 131.292969 512.375 130.90625 514.035156 L 130.796875 514.535156 C 130.496094 515.992188 130.339844 517.5 130.339844 519.042969 C 130.339844 520.929688 130.546875 522.660156 130.945312 524.238281 C 131.347656 525.816406 131.933594 527.246094 132.683594 528.53125 Z M 130.613281 531.566406 C 130.097656 531.742188 129.570312 531.890625 129.039062 532.003906 C 128.03125 532.222656 126.992188 532.335938 125.929688 532.335938 C 122.09375 532.335938 118.609375 530.859375 116.082031 528.46875 C 113.527344 526.054688 111.945312 522.714844 111.945312 519.023438 C 111.945312 515.335938 113.527344 511.992188 116.082031 509.578125 C 118.609375 507.191406 122.09375 505.714844 125.929688 505.714844 C 126.941406 505.714844 127.945312 505.820312 128.921875 506.023438 L 128.988281 506.039062 C 129.425781 506.132812 129.855469 506.246094 130.273438 506.375 C 132.996094 501.488281 137.238281 497.335938 142.484375 494.367188 C 148.007812 491.242188 154.640625 489.417969 161.765625 489.417969 C 167.921875 489.417969 173.714844 490.78125 178.738281 493.167969 C 183.113281 495.246094 186.90625 498.105469 189.855469 501.527344 C 190.484375 501.277344 191.136719 501.070312 191.804688 500.910156 C 192.917969 500.644531 194.0625 500.503906 195.21875 500.503906 C 199.058594 500.503906 202.542969 501.980469 205.070312 504.371094 C 207.625 506.785156 209.207031 510.125 209.207031 513.816406 C 209.207031 517.503906 207.625 520.84375 205.070312 523.261719 C 202.542969 525.648438 199.058594 527.125 195.21875 527.125 L 194.964844 527.121094 C 192.78125 532.105469 188.5625 535.78125 183.105469 538.300781 C 176.710938 541.25 168.601562 542.601562 160.140625 542.601562 C 152.992188 542.601562 146.570312 541.636719 141.328125 539.566406 C 136.785156 537.769531 133.121094 535.132812 130.617188 531.566406 Z M 128.320312 528.679688 L 128.875 528.546875 C 128.371094 527.445312 127.960938 526.285156 127.648438 525.0625 C 127.179688 523.207031 126.933594 521.203125 126.933594 519.042969 C 126.933594 517.960938 127.003906 516.886719 127.140625 515.824219 C 125.414062 516.125 123.03125 517.320312 122.929688 521.609375 C 122.90625 522.546875 122.128906 523.285156 121.195312 523.265625 C 120.257812 523.242188 119.515625 522.464844 119.539062 521.53125 C 119.730469 513.621094 125.097656 512.429688 127.835938 512.339844 C 128.101562 511.367188 128.421875 510.410156 128.792969 509.480469 L 128.230469 509.347656 C 127.507812 509.199219 126.738281 509.117188 125.933594 509.117188 C 122.988281 509.117188 120.328125 510.242188 118.410156 512.050781 C 116.519531 513.839844 115.347656 516.304688 115.347656 519.023438 C 115.347656 521.746094 116.519531 524.210938 118.410156 525.996094 C 120.328125 527.808594 122.988281 528.929688 125.933594 528.929688 C 126.757812 528.929688 127.558594 528.84375 128.320312 528.679688 Z M 194.015625 507.839844 C 196.738281 507.917969 202.164062 509.074219 202.355469 517.03125 C 202.378906 517.964844 201.636719 518.742188 200.703125 518.765625 C 199.765625 518.785156 198.988281 518.046875 198.96875 517.109375 C 198.878906 513.375 197.058594 511.988281 195.453125 511.492188 C 196.195312 513.90625 196.59375 516.4375 196.59375 519.042969 C 196.59375 520.257812 196.496094 521.4375 196.304688 522.582031 C 196.242188 522.957031 196.171875 523.328125 196.089844 523.6875 C 198.6875 523.492188 201.015625 522.417969 202.742188 520.785156 C 204.632812 519 205.800781 516.535156 205.800781 513.816406 C 205.800781 511.09375 204.632812 508.628906 202.742188 506.84375 C 200.824219 505.03125 198.164062 503.910156 195.21875 503.910156 C 194.292969 503.910156 193.410156 504.011719 192.589844 504.210938 L 192.019531 504.363281 C 192.769531 505.480469 193.4375 506.640625 194.015625 507.839844 Z M 194.015625 507.839844 " fill-opacity="1" fill-rule="nonzero"/><path fill="#282c44" d="M 145.460938 524.195312 C 144.960938 523.40625 145.191406 522.359375 145.980469 521.855469 C 146.769531 521.355469 147.816406 521.585938 148.320312 522.375 C 148.332031 522.390625 151.84375 528.152344 161.550781 528.234375 C 171.171875 528.316406 175.144531 521.019531 175.15625 521 C 175.613281 520.179688 176.648438 519.886719 177.46875 520.347656 C 178.285156 520.804688 178.578125 521.84375 178.121094 522.660156 C 178.105469 522.6875 173.183594 531.722656 161.523438 531.625 C 149.945312 531.527344 145.476562 524.21875 145.460938 524.195312 Z M 158.5625 506.898438 C 158.105469 506.082031 158.394531 505.042969 159.214844 504.585938 C 160.03125 504.128906 161.070312 504.417969 161.527344 505.238281 C 161.539062 505.257812 165.824219 512.679688 161.839844 517.140625 C 161.214844 517.835938 160.144531 517.898438 159.445312 517.273438 C 158.75 516.648438 158.691406 515.578125 159.3125 514.878906 C 161.648438 512.269531 158.570312 506.914062 158.5625 506.898438 Z M 158.5625 506.898438 " fill-opacity="1" fill-rule="nonzero"/><path fill="#282c44" d="M 142.324219 526.542969 C 141.390625 526.578125 140.601562 525.851562 140.5625 524.914062 C 140.527344 523.976562 141.257812 523.1875 142.191406 523.152344 C 142.203125 523.152344 146.128906 523.082031 146.910156 520.738281 C 147.203125 519.847656 148.164062 519.367188 149.050781 519.660156 C 149.9375 519.953125 150.417969 520.914062 150.125 521.800781 C 148.570312 526.472656 142.339844 526.542969 142.324219 526.542969 Z M 142.324219 526.542969 " fill-opacity="1" fill-rule="nonzero"/><path fill="#282c44" d="M 173.164062 520.765625 C 172.796875 519.902344 173.199219 518.902344 174.0625 518.535156 C 174.921875 518.167969 175.921875 518.570312 176.289062 519.433594 C 176.289062 519.4375 177.019531 521.089844 179.96875 520.75 C 180.898438 520.644531 181.742188 521.3125 181.847656 522.246094 C 181.953125 523.175781 181.285156 524.019531 180.351562 524.128906 C 174.910156 524.753906 173.167969 520.773438 173.164062 520.765625 Z M 173.164062 520.765625 " fill-opacity="1" fill-rule="nonzero"/><path fill="#282c44" d="M 149.71875 506.085938 C 151.085938 506.085938 152.195312 507.914062 152.195312 510.167969 C 152.195312 512.421875 151.085938 514.25 149.71875 514.25 C 148.351562 514.25 147.242188 512.421875 147.242188 510.167969 C 147.242188 507.914062 148.351562 506.085938 149.71875 506.085938 Z M 149.71875 506.085938 " fill-opacity="1" fill-rule="evenodd"/><path fill="#282c44" d="M 173.429688 505.503906 C 174.800781 505.503906 175.910156 507.328125 175.910156 509.585938 C 175.910156 511.839844 174.800781 513.667969 173.429688 513.667969 C 172.0625 513.667969 170.953125 511.839844 170.953125 509.585938 C 170.953125 507.328125 172.0625 505.503906 173.429688 505.503906 Z M 173.429688 505.503906 " fill-opacity="1" fill-rule="evenodd"/><path fill="#282c44" d="M 123.703125 507.789062 C 123.828125 508.71875 123.175781 509.574219 122.246094 509.699219 C 121.320312 509.824219 120.464844 509.171875 120.339844 508.242188 C 120.332031 508.175781 117.304688 488.160156 133.734375 481.445312 C 132.34375 479.992188 131.722656 478.5625 131.734375 477.199219 C 131.746094 475.042969 133.238281 473.296875 135.722656 472.039062 C 137.808594 470.980469 140.679688 470.226562 143.941406 469.851562 C 154.265625 468.660156 168.957031 471.226562 175.3125 479.917969 C 175.890625 480.710938 176.363281 481.445312 176.742188 482.125 C 181.40625 483.527344 185.199219 485.507812 188.265625 487.679688 C 196.226562 493.324219 199.28125 500.355469 199.84375 502.015625 C 200.144531 502.902344 199.667969 503.867188 198.78125 504.167969 C 197.894531 504.46875 196.929688 503.992188 196.628906 503.105469 C 196.140625 501.660156 193.453125 495.519531 186.300781 490.445312 C 183.996094 488.8125 181.226562 487.296875 177.921875 486.097656 C 177.855469 487.144531 177.371094 487.929688 176.59375 488.5 C 174.714844 489.875 170.851562 489.234375 167.550781 487.945312 C 164.039062 486.570312 161.035156 484.21875 161.296875 482.457031 C 161.546875 480.742188 163.9375 479.738281 169.90625 480.617188 C 170.542969 480.710938 171.164062 480.816406 171.773438 480.929688 C 165.824219 474.140625 153.3125 472.191406 144.328125 473.226562 C 141.449219 473.558594 138.976562 474.195312 137.25 475.070312 C 135.921875 475.742188 135.128906 476.480469 135.121094 477.210938 C 135.117188 478.003906 135.835938 479.015625 137.488281 480.242188 C 139.019531 479.867188 140.683594 479.589844 142.5 479.429688 C 149.738281 478.800781 154.007812 479.628906 155.972656 480.863281 C 157.867188 482.054688 158.25 483.628906 157.445312 485.164062 C 156.867188 486.265625 155.519531 487.21875 153.625 487.738281 L 153.625 487.742188 C 149.980469 488.734375 143.707031 488.3125 136.914062 483.957031 C 120.871094 489.042969 123.695312 507.730469 123.703125 507.789062 Z M 142.792969 482.824219 L 142.019531 482.902344 C 146.492188 484.960938 150.347656 485.109375 152.730469 484.457031 L 152.734375 484.464844 C 153.691406 484.203125 154.289062 483.886719 154.441406 483.59375 C 154.515625 483.453125 154.265625 483.800781 154.164062 483.734375 C 152.730469 482.832031 149.207031 482.261719 142.792969 482.824219 Z M 174.585938 485.761719 C 174.707031 485.671875 174.703125 485.441406 174.53125 485.03125 C 172.9375 484.605469 171.234375 484.25 169.417969 483.984375 C 165.902344 483.464844 164.683594 482.765625 164.660156 482.949219 C 164.640625 483.070312 166.601562 483.921875 168.789062 484.78125 C 171.191406 485.71875 173.773438 486.351562 174.585938 485.761719 Z M 174.585938 485.761719 " fill-opacity="1" fill-rule="nonzero"/><path fill="#9bd4c8" d="M 496.050781 604.503906 L 502.507812 604.503906 C 510.917969 604.503906 517.800781 611.394531 517.800781 619.8125 L 517.800781 660.265625 C 517.800781 668.6875 510.917969 675.574219 502.507812 675.574219 L 462.085938 675.574219 C 453.675781 675.574219 446.792969 668.6875 446.792969 660.265625 L 446.792969 649.382812 C 444.863281 649.582031 442.910156 649.683594 440.929688 649.683594 C 409.882812 649.683594 384.714844 624.496094 384.714844 593.421875 C 384.714844 562.347656 409.882812 537.160156 440.929688 537.160156 C 471.976562 537.160156 497.144531 562.347656 497.144531 593.421875 C 497.144531 597.214844 496.765625 600.921875 496.050781 604.503906 Z M 496.050781 604.503906 " fill-opacity="1" fill-rule="evenodd"/><path fill="#282c44" d="M 387.417969 570.394531 C 388.34375 569.570312 389.761719 569.652344 390.582031 570.578125 C 391.40625 571.5 391.324219 572.921875 390.398438 573.742188 C 387.074219 576.703125 380.871094 581.332031 371.648438 584.746094 C 362.488281 588.136719 350.324219 590.335938 335.011719 588.496094 C 324.445312 587.226562 316.257812 582.082031 310.75 574.8125 C 306.242188 568.867188 303.550781 561.507812 302.847656 553.714844 C 302.144531 545.960938 303.398438 537.761719 306.773438 530.089844 C 311.835938 518.582031 321.660156 508.238281 336.78125 502.339844 C 336.910156 502.289062 337.039062 502.253906 337.171875 502.226562 C 338.273438 501.964844 348.550781 499.476562 348.59375 498.328125 C 348.601562 498.128906 336.441406 500.265625 336.40625 500.273438 C 335.1875 500.484375 334.023438 499.667969 333.8125 498.449219 C 333.601562 497.226562 334.414062 496.066406 335.636719 495.851562 C 335.683594 495.84375 353.285156 492.710938 353.0625 498.484375 C 352.894531 502.953125 339.890625 506.179688 338.273438 506.5625 C 324.449219 511.992188 315.480469 521.421875 310.875 531.898438 C 307.804688 538.871094 306.664062 546.300781 307.296875 553.3125 C 307.929688 560.289062 310.316406 566.84375 314.308594 572.109375 C 319.105469 578.441406 326.269531 582.925781 335.539062 584.039062 C 350.035156 585.78125 361.5 583.71875 370.105469 580.535156 C 378.648438 577.375 384.359375 573.113281 387.417969 570.390625 Z M 387.417969 570.394531 " fill-opacity="1" fill-rule="nonzero"/><path fill="#282c44" d="M 321.578125 508.125 C 321.917969 509.3125 321.238281 510.554688 320.050781 510.894531 C 318.867188 511.238281 317.625 510.558594 317.28125 509.371094 C 317.277344 509.347656 315.066406 502.316406 321.625 499.050781 C 320.722656 496.136719 319.835938 491.136719 323.648438 489.421875 C 329.335938 486.871094 333.464844 499.613281 333.476562 499.648438 C 333.863281 500.820312 333.226562 502.085938 332.058594 502.472656 C 330.886719 502.859375 329.621094 502.222656 329.234375 501.050781 C 329.230469 501.03125 326.582031 493.011719 325.472656 493.511719 C 324.296875 494.039062 326.148438 498.527344 326.496094 499.34375 C 326.558594 499.46875 326.609375 499.597656 326.648438 499.738281 C 326.988281 500.929688 326.296875 502.167969 325.105469 502.507812 C 320.242188 503.890625 321.574219 508.113281 321.578125 508.125 Z M 321.578125 508.125 " fill-opacity="1" fill-rule="nonzero"/><path fill="#282c44" d="M 337.976562 499.148438 C 337.375 500.230469 336.011719 500.617188 334.933594 500.019531 C 333.855469 499.417969 333.46875 498.054688 334.066406 496.976562 C 334.070312 496.96875 335.648438 494.121094 334.550781 493.441406 C 332.824219 492.371094 328.921875 494.835938 328.914062 494.84375 C 327.867188 495.5 326.484375 495.1875 325.828125 494.140625 C 325.171875 493.09375 325.484375 491.710938 326.53125 491.054688 C 326.546875 491.042969 332.800781 487.09375 336.898438 489.632812 C 341.625 492.558594 337.984375 499.132812 337.976562 499.148438 Z M 337.976562 499.148438 " fill-opacity="1" fill-rule="nonzero"/><path fill="#282c44" d="M 336.140625 490.910156 C 336.1875 492.144531 335.226562 493.1875 333.992188 493.234375 C 332.757812 493.28125 331.71875 492.320312 331.667969 491.085938 C 331.667969 491.074219 331.582031 487.335938 327.398438 487.929688 C 325.0625 488.257812 323.082031 489.730469 322.132812 491.25 C 321.882812 491.652344 321.726562 492.03125 321.6875 492.347656 L 321.671875 492.523438 C 321.796875 492.703125 322.25 492.832031 323.136719 492.867188 C 324.371094 492.910156 325.335938 493.945312 325.292969 495.179688 C 325.25 496.414062 324.210938 497.382812 322.976562 497.339844 C 320.511719 497.246094 318.894531 496.375 317.992188 495.070312 C 317.335938 494.121094 317.101562 493.027344 317.226562 491.882812 L 317.234375 491.804688 C 317.351562 490.835938 317.734375 489.835938 318.332031 488.878906 C 319.871094 486.40625 323.058594 484.015625 326.785156 483.488281 C 335.925781 482.195312 336.140625 490.886719 336.140625 490.910156 Z M 336.140625 490.910156 " fill-opacity="1" fill-rule="nonzero"/><path fill="#282c44" d="M 321.074219 486.230469 C 322.277344 485.941406 323.484375 486.679688 323.773438 487.878906 C 324.066406 489.082031 323.328125 490.292969 322.128906 490.582031 C 321.996094 490.613281 275.855469 501.046875 274.101562 566.949219 C 272.109375 641.730469 392.828125 621.519531 393.175781 621.464844 C 394.394531 621.273438 395.539062 622.101562 395.734375 623.324219 C 395.925781 624.542969 395.09375 625.691406 393.875 625.886719 C 393.515625 625.941406 267.496094 647.066406 269.632812 566.84375 C 271.480469 497.464844 320.933594 486.265625 321.074219 486.230469 Z M 321.074219 486.230469 " fill-opacity="1" fill-rule="nonzero"/><path fill="#282c44" d="M 477.46875 551.710938 C 476.390625 552.3125 475.027344 551.921875 474.429688 550.84375 C 473.828125 549.765625 474.21875 548.402344 475.296875 547.800781 C 475.703125 547.574219 616.695312 468.835938 628.40625 472.878906 C 644.488281 478.425781 617.210938 491.109375 617.132812 491.144531 C 616.015625 491.679688 614.679688 491.203125 614.148438 490.085938 C 613.613281 488.964844 614.089844 487.625 615.207031 487.09375 C 615.257812 487.070312 632.40625 479.003906 626.953125 477.121094 C 617.132812 473.734375 477.871094 551.488281 477.46875 551.710938 Z M 477.46875 551.710938 " fill-opacity="1" fill-rule="nonzero"/><path fill="#282c44" d="M 595.390625 511.570312 C 594.152344 511.570312 593.148438 510.5625 593.148438 509.324219 C 593.148438 508.085938 594.152344 507.078125 595.390625 507.078125 C 595.410156 507.078125 601.539062 507.210938 601.40625 498.398438 C 601.390625 497.164062 602.378906 496.148438 603.613281 496.132812 C 604.28125 496.125 604.878906 496.410156 605.292969 496.867188 C 605.320312 496.890625 613.796875 506.339844 614.863281 504.609375 C 616.648438 501.703125 604.773438 489.527344 604.738281 489.492188 C 603.875 488.613281 603.886719 487.195312 604.765625 486.328125 C 605.644531 485.460938 607.0625 485.472656 607.929688 486.355469 C 607.96875 486.394531 622.28125 501.109375 618.683594 506.960938 C 615.800781 511.648438 609.351562 506.949219 605.363281 503.289062 C 603.257812 511.71875 595.417969 511.570312 595.390625 511.570312 Z M 595.390625 511.570312 " fill-opacity="1" fill-rule="nonzero"/><path fill="#282c44" d="M 615.820312 491.328125 C 614.601562 491.136719 613.769531 489.988281 613.960938 488.769531 C 614.15625 487.546875 615.300781 486.714844 616.519531 486.910156 C 616.554688 486.914062 628.105469 488.625 628.78125 495.179688 C 629.527344 502.390625 616.171875 502.855469 616.132812 502.855469 C 614.902344 502.914062 613.851562 501.960938 613.792969 500.726562 C 613.738281 499.492188 614.691406 498.441406 615.925781 498.382812 C 615.949219 498.382812 624.578125 498.027344 624.328125 495.636719 C 624.015625 492.582031 615.84375 491.332031 615.820312 491.328125 Z M 615.820312 491.328125 " fill-opacity="1" fill-rule="nonzero"/><path fill="#282c44" d="M 614.160156 497.121094 C 613.214844 497.917969 611.800781 497.800781 611.003906 496.859375 C 610.207031 495.914062 610.324219 494.5 611.265625 493.699219 C 611.277344 493.691406 615.609375 489.929688 620.703125 491.296875 C 621.894531 491.613281 622.605469 492.84375 622.289062 494.039062 C 621.96875 495.238281 620.738281 495.949219 619.542969 495.628906 C 616.746094 494.875 614.164062 497.117188 614.160156 497.121094 Z M 614.160156 497.121094 " fill-opacity="1" fill-rule="nonzero"/><path fill="#282c44" d="M 624.984375 499.273438 C 623.898438 498.679688 623.503906 497.316406 624.097656 496.230469 C 624.695312 495.144531 626.054688 494.75 627.140625 495.34375 C 627.160156 495.355469 635.070312 499.699219 628.503906 506.863281 C 626.5625 508.976562 624.28125 510.285156 622.09375 510.921875 C 620.519531 511.378906 618.976562 511.492188 617.625 511.3125 C 616.101562 511.109375 614.765625 510.535156 613.804688 509.648438 C 613.125 509.023438 612.628906 508.25 612.367188 507.34375 C 612.023438 506.15625 612.703125 504.914062 613.890625 504.570312 C 615.074219 504.226562 616.316406 504.910156 616.660156 506.097656 C 616.683594 506.179688 616.746094 506.265625 616.835938 506.351562 C 617.121094 506.609375 617.597656 506.792969 618.203125 506.871094 C 618.976562 506.976562 619.886719 506.902344 620.847656 506.625 C 622.308594 506.199219 623.855469 505.300781 625.207031 503.824219 C 627.910156 500.878906 624.992188 499.277344 624.984375 499.273438 Z M 624.984375 499.273438 " fill-opacity="1" fill-rule="nonzero"/><path fill="#282c44" d="M 616.261719 507.109375 C 617.3125 506.457031 618.695312 506.777344 619.347656 507.828125 C 620 508.878906 619.679688 510.261719 618.628906 510.917969 L 497.660156 586.621094 C 496.609375 587.277344 495.226562 586.953125 494.574219 585.902344 C 493.921875 584.851562 494.242188 583.46875 495.292969 582.816406 Z M 616.261719 507.109375 " fill-opacity="1" fill-rule="nonzero"/><path fill="#282c44" d="M 519.625 632.570312 C 518.914062 633.574219 517.519531 633.816406 516.511719 633.105469 C 515.503906 632.390625 515.265625 630.996094 515.976562 629.988281 C 516.144531 629.753906 573.90625 547.160156 623.933594 588.347656 C 670.386719 626.589844 603.824219 717.453125 594.320312 729.941406 L 610.945312 749.546875 C 611.742188 750.492188 611.625 751.90625 610.683594 752.707031 C 610.046875 753.246094 609.195312 753.367188 608.464844 753.097656 L 547.6875 730.609375 C 546.523438 730.183594 545.929688 728.894531 546.355469 727.730469 C 546.449219 727.476562 546.582031 727.25 546.746094 727.054688 C 549.296875 723.4375 597.964844 653.925781 584.4375 635.253906 C 571.148438 616.90625 518.441406 667.3125 518.292969 667.453125 C 517.394531 668.304688 515.980469 668.269531 515.128906 667.375 C 514.277344 666.480469 514.3125 665.058594 515.207031 664.207031 C 515.367188 664.054688 571.734375 610.078125 588.066406 632.621094 C 602.171875 652.09375 560.847656 714.421875 551.941406 727.402344 L 602.003906 745.929688 L 589.734375 731.460938 C 589.066406 730.667969 589.015625 729.484375 589.679688 728.636719 C 589.902344 728.351562 667.550781 630.050781 621.09375 591.804688 C 574.800781 553.695312 519.78125 632.34375 519.621094 632.570312 Z M 519.625 632.570312 " fill-opacity="1" fill-rule="nonzero"/><g clip-path="url(#dc98ee7720)"><path fill="#282c44" d="M 435.316406 647.761719 C 436.289062 647.003906 437.695312 647.175781 438.453125 648.148438 C 439.214844 649.125 439.042969 650.53125 438.070312 651.289062 L 323.605469 740.800781 C 323.097656 741.195312 322.476562 741.335938 321.890625 741.246094 L 321.886719 741.253906 L 289.792969 736.300781 L 347.511719 772.519531 L 449.164062 668.953125 C 450.03125 668.074219 451.445312 668.0625 452.328125 668.925781 C 453.207031 669.792969 453.21875 671.210938 452.355469 672.09375 L 349.445312 776.9375 C 348.722656 777.667969 347.570312 777.828125 346.667969 777.261719 L 278.429688 734.445312 C 277.570312 734.023438 277.046875 733.082031 277.199219 732.089844 C 277.390625 730.863281 278.535156 730.023438 279.757812 730.210938 L 321.625 736.671875 Z M 435.316406 647.761719 " fill-opacity="1" fill-rule="nonzero"/></g><path fill="#282c44" d="M 399.105469 540.128906 L 399.1875 540.21875 C 402.769531 544.195312 407.796875 546.640625 413.859375 547.761719 C 420.585938 549.007812 428.574219 548.632812 437.296875 546.921875 C 447.664062 544.886719 457.199219 541.328125 464.164062 536.289062 C 470.132812 531.96875 474.191406 526.558594 475.167969 520.097656 C 475.355469 518.863281 475.433594 517.613281 475.398438 516.347656 C 475.363281 515.109375 475.214844 513.800781 474.949219 512.429688 C 474.335938 509.304688 473.234375 506.375 471.722656 503.691406 C 471.453125 503.207031 471.164062 502.726562 470.867188 502.257812 C 470.40625 502 470.035156 501.582031 469.851562 501.046875 C 469.800781 500.90625 469.769531 500.765625 469.746094 500.625 C 468.574219 499.023438 467.246094 497.527344 465.777344 496.148438 C 465.4375 495.828125 465.085938 495.511719 464.730469 495.203125 L 464.53125 495.035156 C 460.136719 491.289062 454.667969 488.511719 448.582031 486.957031 C 442.097656 485.300781 434.929688 485.039062 427.625 486.472656 C 419.183594 488.128906 411.765625 491.816406 405.988281 496.773438 C 400.082031 501.839844 395.894531 508.230469 394.078125 515.113281 C 393.503906 517.300781 393.164062 519.53125 393.085938 521.773438 L 393.074219 522.382812 C 393.046875 524.363281 393.222656 526.378906 393.621094 528.40625 C 394.097656 530.839844 394.808594 533.023438 395.722656 534.964844 C 396.648438 536.921875 397.785156 538.640625 399.105469 540.128906 Z M 397.15625 544.542969 C 396.53125 544.898438 395.886719 545.222656 395.226562 545.507812 C 393.988281 546.042969 392.671875 546.453125 391.292969 546.722656 C 386.328125 547.699219 381.445312 546.671875 377.570312 544.222656 C 373.652344 541.75 370.757812 537.824219 369.820312 533.046875 C 368.886719 528.269531 370.082031 523.546875 372.773438 519.777344 C 375.4375 516.042969 379.574219 513.242188 384.542969 512.265625 C 385.84375 512.011719 387.164062 511.898438 388.476562 511.910156 C 389.097656 511.917969 389.714844 511.953125 390.324219 512.019531 C 392.601562 505 397.042969 498.550781 403.078125 493.371094 C 409.425781 487.925781 417.546875 483.878906 426.765625 482.066406 C 434.742188 480.5 442.585938 480.792969 449.683594 482.605469 C 455.863281 484.183594 461.496094 486.921875 466.183594 490.601562 C 466.925781 490.121094 467.71875 489.691406 468.550781 489.3125 C 469.910156 488.6875 471.359375 488.214844 472.867188 487.917969 C 477.832031 486.945312 482.714844 487.972656 486.589844 490.421875 C 490.507812 492.894531 493.398438 496.820312 494.335938 501.597656 C 495.273438 506.375 494.078125 511.09375 491.386719 514.863281 C 488.722656 518.601562 484.585938 521.402344 479.617188 522.378906 L 479.289062 522.4375 C 477.730469 529.441406 473.199219 535.269531 466.777344 539.917969 C 459.253906 545.359375 449.101562 549.175781 438.15625 551.324219 C 428.914062 553.140625 420.363281 553.519531 413.054688 552.167969 C 406.714844 550.992188 401.300781 548.515625 397.15625 544.542969 Z M 393.457031 541.386719 L 394.140625 541.070312 C 393.210938 539.78125 392.386719 538.382812 391.675781 536.875 C 390.59375 534.59375 389.769531 532.058594 389.21875 529.265625 C 388.945312 527.859375 388.761719 526.453125 388.671875 525.042969 C 386.515625 525.875 383.738281 528.03125 384.691406 533.605469 C 384.902344 534.828125 384.082031 535.984375 382.863281 536.195312 C 381.640625 536.402344 380.484375 535.582031 380.277344 534.359375 C 378.515625 524.066406 385.171875 521.167969 388.683594 520.359375 C 388.78125 519.03125 388.953125 517.714844 389.199219 516.410156 L 388.441406 516.382812 C 387.464844 516.375 386.445312 516.464844 385.398438 516.671875 C 381.59375 517.417969 378.4375 519.542969 376.417969 522.375 C 374.421875 525.171875 373.53125 528.664062 374.222656 532.1875 C 374.914062 535.707031 377.050781 538.601562 379.953125 540.433594 C 382.894531 542.292969 386.621094 543.070312 390.433594 542.320312 C 391.496094 542.113281 392.507812 541.796875 393.457031 541.386719 Z M 473.171875 497.71875 C 476.707031 497.132812 484.027344 497.246094 486.292969 507.496094 C 486.558594 508.699219 485.796875 509.894531 484.59375 510.160156 C 483.386719 510.429688 482.195312 509.667969 481.929688 508.460938 C 480.863281 503.652344 478.160156 502.3125 475.949219 502.078125 C 477.527344 505.011719 478.683594 508.191406 479.347656 511.570312 C 479.652344 513.136719 479.824219 514.691406 479.867188 516.226562 C 479.882812 516.726562 479.882812 517.222656 479.871094 517.710938 C 483.179688 516.796875 485.921875 514.820312 487.742188 512.269531 C 489.738281 509.472656 490.628906 505.980469 489.9375 502.457031 C 489.246094 498.9375 487.109375 496.042969 484.207031 494.210938 C 481.265625 492.351562 477.539062 491.574219 473.726562 492.324219 C 472.539062 492.554688 471.425781 492.917969 470.40625 493.382812 L 469.710938 493.726562 C 470.960938 494.980469 472.121094 496.3125 473.171875 497.71875 Z M 473.171875 497.71875 " fill-opacity="1" fill-rule="nonzero"/><path fill="#282c44" d="M 414.476562 531.214844 C 413.636719 530.308594 413.6875 528.890625 414.589844 528.046875 C 415.496094 527.203125 416.914062 527.257812 417.753906 528.160156 C 417.773438 528.179688 423.765625 534.722656 436.339844 532.363281 C 448.820312 530.023438 452.105469 519.574219 452.113281 519.542969 C 452.5 518.371094 453.765625 517.734375 454.9375 518.121094 C 456.105469 518.511719 456.742188 519.773438 456.355469 520.945312 C 456.34375 520.984375 452.265625 533.9375 437.164062 536.769531 C 422.152344 539.582031 414.5 531.238281 414.476562 531.214844 Z M 427.066406 505.515625 C 426.261719 504.574219 426.371094 503.160156 427.3125 502.355469 C 428.25 501.550781 429.664062 501.664062 430.46875 502.601562 C 430.488281 502.625 437.925781 511.15625 433.90625 517.933594 C 433.273438 518.996094 431.902344 519.351562 430.835938 518.722656 C 429.773438 518.09375 429.417969 516.714844 430.046875 515.652344 C 432.414062 511.667969 427.082031 505.53125 427.066406 505.515625 Z M 427.066406 505.515625 " fill-opacity="1" fill-rule="nonzero"/><path fill="#282c44" d="M 410.957031 535.085938 C 409.742188 535.328125 408.558594 534.539062 408.316406 533.324219 C 408.078125 532.109375 408.867188 530.925781 410.078125 530.683594 C 410.09375 530.679688 415.074219 529.636719 415.492188 526.382812 C 415.648438 525.15625 416.765625 524.289062 417.988281 524.441406 C 419.214844 524.597656 420.082031 525.71875 419.925781 526.941406 C 419.101562 533.367188 410.980469 535.082031 410.957031 535.085938 Z M 410.957031 535.085938 " fill-opacity="1" fill-rule="nonzero"/><path fill="#282c44" d="M 449.480469 519.761719 C 448.78125 518.746094 449.035156 517.351562 450.050781 516.648438 C 451.066406 515.945312 452.460938 516.199219 453.160156 517.21875 C 453.164062 517.222656 454.539062 519.195312 458.269531 518.007812 C 459.445312 517.632812 460.703125 518.285156 461.074219 519.460938 C 461.449219 520.640625 460.796875 521.894531 459.621094 522.269531 C 452.742188 524.457031 449.488281 519.773438 449.480469 519.761719 Z M 449.480469 519.761719 " fill-opacity="1" fill-rule="nonzero"/><path fill="#282c44" d="M 415.410156 506.703125 C 417.179688 506.355469 419.078125 508.4375 419.652344 511.359375 C 420.226562 514.277344 419.253906 516.925781 417.484375 517.273438 C 415.710938 517.621094 413.8125 515.535156 413.242188 512.617188 C 412.667969 509.699219 413.640625 507.050781 415.410156 506.703125 Z M 415.410156 506.703125 " fill-opacity="1" fill-rule="evenodd"/><path fill="#282c44" d="M 445.941406 499.925781 C 447.710938 499.574219 449.609375 501.660156 450.183594 504.578125 C 450.757812 507.5 449.785156 510.144531 448.015625 510.492188 C 446.242188 510.839844 444.34375 508.757812 443.773438 505.839844 C 443.199219 502.917969 444.171875 500.269531 445.941406 499.925781 Z M 445.941406 499.925781 " fill-opacity="1" fill-rule="evenodd"/><path fill="#282c44" d="M 390.707031 494.058594 C 389.734375 493.292969 389.566406 491.882812 390.332031 490.910156 C 391.097656 489.9375 392.503906 489.769531 393.476562 490.535156 L 408.738281 502.570312 C 409.710938 503.335938 409.878906 504.746094 409.117188 505.71875 C 408.351562 506.695312 406.941406 506.863281 405.96875 506.097656 Z M 390.707031 494.058594 " fill-opacity="1" fill-rule="nonzero"/><path fill="#282c44" d="M 404.613281 484.433594 C 404.023438 483.351562 404.425781 481.992188 405.507812 481.398438 C 406.59375 480.808594 407.949219 481.210938 408.539062 482.296875 L 416.558594 497.050781 C 417.148438 498.136719 416.75 499.496094 415.664062 500.085938 C 414.582031 500.675781 413.222656 500.277344 412.632812 499.191406 Z M 404.613281 484.433594 " fill-opacity="1" fill-rule="nonzero"/><path fill="#282c44" d="M 416.457031 478.308594 C 416.105469 477.125 416.78125 475.875 417.964844 475.519531 C 419.152344 475.167969 420.398438 475.84375 420.753906 477.03125 L 425.539062 492.949219 C 425.890625 494.136719 425.214844 495.386719 424.03125 495.738281 C 422.84375 496.09375 421.597656 495.417969 421.242188 494.230469 Z M 416.457031 478.308594 " fill-opacity="1" fill-rule="nonzero"/><path fill="#282c44" d="M 429.570312 475.050781 C 429.445312 473.820312 430.339844 472.71875 431.570312 472.59375 C 432.796875 472.46875 433.898438 473.363281 434.023438 474.59375 L 435.703125 490.773438 C 435.828125 492.003906 434.933594 493.105469 433.707031 493.230469 C 432.476562 493.355469 431.378906 492.460938 431.253906 491.230469 Z M 429.570312 475.050781 " fill-opacity="1" fill-rule="nonzero"/><path fill="#282c44" d="M 442.882812 474.371094 C 442.917969 473.136719 443.945312 472.164062 445.179688 472.195312 C 446.414062 472.230469 447.386719 473.261719 447.351562 474.496094 L 446.835938 491.191406 C 446.800781 492.429688 445.773438 493.402344 444.539062 493.367188 C 443.304688 493.335938 442.332031 492.304688 442.367188 491.070312 Z M 442.882812 474.371094 " fill-opacity="1" fill-rule="nonzero"/><path fill="#282c44" d="M 456.292969 477.992188 C 456.828125 476.875 458.167969 476.410156 459.28125 476.945312 C 460.394531 477.484375 460.863281 478.824219 460.324219 479.9375 L 454.375 492.234375 C 453.839844 493.347656 452.5 493.816406 451.386719 493.277344 C 450.273438 492.742188 449.808594 491.402344 450.34375 490.285156 L 456.292969 477.988281 Z M 456.292969 477.992188 " fill-opacity="1" fill-rule="nonzero"/><path fill="#282c44" d="M 344.800781 722.441406 L 350.96875 743.820312 L 375.035156 745.59375 L 374.71875 750.070312 L 347.539062 748.0625 L 340.503906 723.6875 Z M 344.800781 722.441406 " fill-opacity="1" fill-rule="nonzero"/><path fill="#282c44" d="M 575.773438 688.507812 L 583.070312 705.933594 L 611.707031 696.777344 L 613.058594 701.039062 L 580.523438 711.441406 L 571.636719 690.226562 Z M 575.773438 688.507812 " fill-opacity="1" fill-rule="nonzero"/></svg>